<?xml version="1.0" encoding="UTF-8" standalone="no"?>
<svg
   xmlns:ns1="http://www.iki.fi/pav/software/textext/"
   xmlns:dc="http://purl.org/dc/elements/1.1/"
   xmlns:cc="http://creativecommons.org/ns#"
   xmlns:rdf="http://www.w3.org/1999/02/22-rdf-syntax-ns#"
   xmlns:svg="http://www.w3.org/2000/svg"
   xmlns="http://www.w3.org/2000/svg"
   xmlns:sodipodi="http://sodipodi.sourceforge.net/DTD/sodipodi-0.dtd"
   xmlns:inkscape="http://www.inkscape.org/namespaces/inkscape"
   width="160mm"
   height="100mm"
   viewBox="0 0 160 100"
   version="1.1"
   id="svg8"
   sodipodi:docname="set_theory.svg"
   inkscape:version="1.0.2 (1.0.2+r75+1)"
   inkscape:export-filename="/home/reto/Documents/ETH/R/Stat Reference Book/Stat_Ref_Book/figures/03_inkscape/set_theory/set_theory.png"
   inkscape:export-xdpi="96"
   inkscape:export-ydpi="96">
  <defs
     id="defs2" />
  <sodipodi:namedview
     id="base"
     pagecolor="#ffffff"
     bordercolor="#666666"
     borderopacity="1.0"
     inkscape:pageopacity="0.0"
     inkscape:pageshadow="2"
     inkscape:zoom="0.7"
     inkscape:cx="370.60498"
     inkscape:cy="474.30972"
     inkscape:document-units="mm"
     inkscape:current-layer="layer1"
     inkscape:document-rotation="0"
     showgrid="true"
     inkscape:window-width="1600"
     inkscape:window-height="1135"
     inkscape:window-x="0"
     inkscape:window-y="0"
     inkscape:window-maximized="1">
    <inkscape:grid
       type="xygrid"
       id="grid847" />
  </sodipodi:namedview>
  <metadata
     id="metadata5">
    <rdf:RDF>
      <cc:Work
         rdf:about="">
        <dc:format>image/svg+xml</dc:format>
        <dc:type
           rdf:resource="http://purl.org/dc/dcmitype/StillImage" />
        <dc:title />
      </cc:Work>
    </rdf:RDF>
  </metadata>
  <g
     inkscape:label="Layer 1"
     inkscape:groupmode="layer"
     id="layer1">
    <g
       inkscape:label="Layer 1"
       id="layer1-5"
       transform="matrix(0.1273688,0,0,0.1273688,54.677446,59.677869)">
      <rect
         x="2.5324416"
         y="2.5291228"
         width="379.02979"
         height="274.79257"
         id="rect1310-3"
         style="fill:#ffffff;fill-opacity:1;stroke:#000000;stroke-width:5.04988;stroke-miterlimit:4;stroke-dasharray:none;stroke-opacity:1" />
      <circle
         cx="180"
         cy="180"
         r="120"
         id="circle1312-5"
         style="fill:#ffffff;fill-opacity:1;stroke:#000000;stroke-width:6;stroke-miterlimit:4;stroke-dasharray:none;stroke-opacity:1"
         transform="matrix(0.842564,0,0,0.840731,-10.24387,-10.52388)" />
      <circle
         cx="300"
         cy="180"
         r="120"
         id="circle1316-6"
         style="fill:#ff0000;fill-opacity:1;stroke:#000000;stroke-width:6;stroke-miterlimit:4;stroke-dasharray:none;stroke-opacity:1"
         transform="matrix(0.842564,0,0,0.840731,-10.24387,-10.52388)" />
      <path
         d="m 191.97147,53.436405 c 31.28283,18.021865 50.55383,51.327655 50.55383,87.371395 0,36.04374 -19.271,69.34953 -50.55383,87.37139 -31.28282,-18.02186 -50.55384,-51.32765 -50.55384,-87.37139 0,-36.04374 19.27102,-69.34953 50.55384,-87.371395"
         id="path1320-2"
         style="fill:#ffffff;fill-opacity:1;stroke:#000000;stroke-width:5.04988;stroke-miterlimit:4;stroke-dasharray:none;stroke-opacity:1" />
    </g>
    <g
       inkscape:label="Layer 1"
       id="layer1-1"
       transform="matrix(0.1273688,0,0,0.1273688,-0.32255405,59.677869)">
      <rect
         x="2.5324416"
         y="2.5291228"
         width="379.02979"
         height="274.79257"
         id="rect1310-2"
         style="fill:#ffffff;fill-opacity:1;stroke:#000000;stroke-width:5.04988;stroke-miterlimit:4;stroke-dasharray:none;stroke-opacity:1" />
      <circle
         cx="180"
         cy="180"
         r="120"
         id="circle1312-7"
         style="fill:#ff0000;fill-opacity:1;stroke:#000000;stroke-width:6;stroke-miterlimit:4;stroke-dasharray:none;stroke-opacity:1"
         transform="matrix(0.842564,0,0,0.840731,-10.24387,-10.52388)" />
      <circle
         cx="300"
         cy="180"
         r="120"
         id="circle1316-0"
         style="fill:#ff0000;fill-opacity:1;stroke:#000000;stroke-width:6;stroke-miterlimit:4;stroke-dasharray:none;stroke-opacity:1"
         transform="matrix(0.842564,0,0,0.840731,-10.24387,-10.52388)" />
      <path
         d="m 191.97147,53.436405 c 31.28283,18.021865 50.55383,51.327655 50.55383,87.371395 0,36.04374 -19.271,69.34953 -50.55383,87.37139 -31.28282,-18.02186 -50.55384,-51.32765 -50.55384,-87.37139 0,-36.04374 19.27102,-69.34953 50.55384,-87.371395"
         id="path1320-9"
         style="fill:#ffffff;fill-opacity:1;stroke:#000000;stroke-width:5.04988;stroke-miterlimit:4;stroke-dasharray:none;stroke-opacity:1" />
    </g>
    <g
       inkscape:label="Layer 1"
       id="layer1-60"
       transform="matrix(0.1273688,0,0,0.1273688,109.67745,9.6778686)">
      <rect
         x="2.5324416"
         y="2.5291228"
         width="379.02979"
         height="274.79257"
         id="rect1310-6"
         style="fill:#ffffff;fill-opacity:1;stroke:#000000;stroke-width:5.04988;stroke-miterlimit:4;stroke-dasharray:none;stroke-opacity:1" />
      <circle
         cx="180"
         cy="180"
         r="120"
         id="circle1312-2"
         style="fill:#ff0000;fill-opacity:1;stroke:#000000;stroke-width:6;stroke-miterlimit:4;stroke-dasharray:none;stroke-opacity:1"
         transform="matrix(0.842564,0,0,0.840731,-10.24387,-10.52388)" />
      <circle
         cx="300"
         cy="180"
         r="120"
         id="circle1316-61"
         style="fill:#ff0000;fill-opacity:1;stroke:#000000;stroke-width:6;stroke-miterlimit:4;stroke-dasharray:none;stroke-opacity:1"
         transform="matrix(0.842564,0,0,0.840731,-10.24387,-10.52388)" />
      <path
         d="m 191.97147,53.436405 c 31.28283,18.021865 50.55383,51.327655 50.55383,87.371395 0,36.04374 -19.271,69.34953 -50.55383,87.37139 -31.28282,-18.02186 -50.55384,-51.32765 -50.55384,-87.37139 0,-36.04374 19.27102,-69.34953 50.55384,-87.371395"
         id="path1320-8"
         style="fill:#ff0000;fill-opacity:1;stroke:#000000;stroke-width:5.04988;stroke-miterlimit:4;stroke-dasharray:none;stroke-opacity:1" />
    </g>
    <g
       inkscape:label="Layer 1"
       id="layer1-9"
       transform="matrix(0.1273688,0,0,0.1273688,109.67745,59.67787)">
      <rect
         x="2.5324416"
         y="2.5291228"
         width="379.02979"
         height="274.79257"
         id="rect1310-20"
         style="fill:#ff0000;fill-opacity:1;stroke:#000000;stroke-width:5.04988;stroke-miterlimit:4;stroke-dasharray:none;stroke-opacity:1" />
      <circle
         cx="180"
         cy="180"
         r="120"
         id="circle1312-23"
         style="fill:#ffffff;fill-opacity:1;stroke:#000000;stroke-width:6;stroke-miterlimit:4;stroke-dasharray:none;stroke-opacity:1"
         transform="matrix(0.842564,0,0,0.840731,-10.24387,-10.52388)" />
      <circle
         cx="300"
         cy="180"
         r="120"
         id="circle1316-7"
         style="fill:#ff0000;fill-opacity:1;stroke:#000000;stroke-width:6;stroke-miterlimit:4;stroke-dasharray:none;stroke-opacity:1"
         transform="matrix(0.842564,0,0,0.840731,-10.24387,-10.52388)" />
      <path
         d="m 191.97147,53.436405 c 31.28283,18.021865 50.55383,51.327655 50.55383,87.371395 0,36.04374 -19.271,69.34953 -50.55383,87.37139 -31.28282,-18.02186 -50.55384,-51.32765 -50.55384,-87.37139 0,-36.04374 19.27102,-69.34953 50.55384,-87.371395"
         id="path1320-5"
         style="fill:#ffffff;fill-opacity:1;stroke:#000000;stroke-width:5.04988;stroke-miterlimit:4;stroke-dasharray:none;stroke-opacity:1" />
    </g>
    <g
       inkscape:label="Layer 1"
       id="layer1-6-9"
       transform="matrix(0.12671326,0,0,0.12671326,-0.32089393,9.6795266)">
      <rect
         x="2.5324416"
         y="2.5291228"
         width="379.02979"
         height="274.79257"
         id="rect1310-22"
         style="fill:#ffffff;fill-opacity:1;stroke:#000000;stroke-width:5.04988;stroke-miterlimit:4;stroke-dasharray:none;stroke-opacity:1" />
      <circle
         cx="180"
         cy="180"
         r="120"
         id="circle1312-8"
         style="fill:#ffffff;fill-opacity:1;stroke:#000000;stroke-width:6;stroke-miterlimit:4;stroke-dasharray:none;stroke-opacity:1"
         transform="matrix(0.842564,0,0,0.840731,-10.24387,-10.52388)" />
      <circle
         cx="300"
         cy="180"
         r="120"
         id="circle1316-9"
         style="fill:#ffffff;fill-opacity:1;stroke:#000000;stroke-width:6;stroke-miterlimit:4;stroke-dasharray:none;stroke-opacity:1"
         transform="matrix(0.842564,0,0,0.840731,-10.24387,-10.52388)" />
      <path
         d="m 191.97147,53.436405 c 31.28283,18.021865 50.55383,51.327655 50.55383,87.371395 0,36.04374 -19.271,69.34953 -50.55383,87.37139 -31.28282,-18.02186 -50.55384,-51.32765 -50.55384,-87.37139 0,-36.04374 19.27102,-69.34953 50.55384,-87.371395"
         id="path1320-7"
         style="fill:#ffffff;fill-opacity:1;stroke:#000000;stroke-width:5.04988;stroke-miterlimit:4;stroke-dasharray:none;stroke-opacity:1" />
    </g>
    <g
       inkscape:label="Layer 1"
       id="layer1-6-9-3"
       transform="matrix(0.12671326,0,0,0.12671326,54.679106,9.6795266)">
      <rect
         x="2.5324416"
         y="2.5291228"
         width="379.02979"
         height="274.79257"
         id="rect1310-22-6"
         style="fill:#ffffff;fill-opacity:1;stroke:#000000;stroke-width:5.04988;stroke-miterlimit:4;stroke-dasharray:none;stroke-opacity:1" />
      <circle
         cx="180"
         cy="180"
         r="120"
         id="circle1312-8-1"
         style="fill:#ffffff;fill-opacity:1;stroke:#000000;stroke-width:6;stroke-miterlimit:4;stroke-dasharray:none;stroke-opacity:1"
         transform="matrix(0.842564,0,0,0.840731,-10.24387,-10.52388)" />
      <circle
         cx="300"
         cy="180"
         r="120"
         id="circle1316-9-2"
         style="fill:#ffffff;fill-opacity:1;stroke:#000000;stroke-width:6;stroke-miterlimit:4;stroke-dasharray:none;stroke-opacity:1"
         transform="matrix(0.842564,0,0,0.840731,-10.24387,-10.52388)" />
      <path
         d="m 191.97147,53.436405 c 31.28283,18.021865 50.55383,51.327655 50.55383,87.371395 0,36.04374 -19.271,69.34953 -50.55383,87.37139 -31.28282,-18.02186 -50.55384,-51.32765 -50.55384,-87.37139 0,-36.04374 19.27102,-69.34953 50.55384,-87.371395"
         id="path1320-7-9"
         style="fill:#ff0000;fill-opacity:1;stroke:#000000;stroke-width:5.04988;stroke-miterlimit:4;stroke-dasharray:none;stroke-opacity:1" />
    </g>
    <g
       transform="matrix(0.705556,0,0,0.705556,7.527518,23.802685)"
       ns1:version="1.0.1"
       ns1:texconverter="xelatex"
       ns1:pdfconverter="inkscape"
       ns1:text="$$\nA\n$$"
       ns1:preamble="/home/reto/.config/inkscape/extensions/textext/packages_additional.tex"
       ns1:scale="2.0"
       ns1:alignment="middle center"
       ns1:jacobian_sqrt="0.705556"
       id="g1466">
      <defs
         id="id-fa4c22a2-1afe-488a-a3a5-8cbf73561c31">
        <g
           id="id-1155a40e-aa01-4f10-af86-06b0963143ff">
          <symbol
             overflow="visible"
             id="id-12e78bd5-32d8-4b46-8a17-f882c17fd378">
            <path
               style="stroke:none"
               d=""
               id="id-b2dd69d8-6fbc-4451-96b3-527a5ffaf27e" />
          </symbol>
          <symbol
             overflow="visible"
             id="id-4d1c351f-2f42-4add-8c66-e50ea0e78a1b">
            <path
               style="stroke:none"
               d="M 1.78125,-1.140625 C 1.390625,-0.484375 1,-0.34375 0.5625,-0.3125 0.4375,-0.296875 0.34375,-0.296875 0.34375,-0.109375 0.34375,-0.046875 0.40625,0 0.484375,0 0.75,0 1.0625,-0.03125 1.328125,-0.03125 c 0.34375,0 0.6875,0.03125 1,0.03125 0.0625,0 0.1875,0 0.1875,-0.1875 0,-0.109375 -0.078125,-0.125 -0.15625,-0.125 -0.21875,-0.015625 -0.46875,-0.09375 -0.46875,-0.34375 0,-0.125 0.0625,-0.234375 0.140625,-0.375 l 0.765625,-1.265625 h 2.5 c 0.015625,0.203125 0.15625,1.5625 0.15625,1.65625 0,0.296875 -0.515625,0.328125 -0.71875,0.328125 C 4.59375,-0.3125 4.5,-0.3125 4.5,-0.109375 4.5,0 4.609375,0 4.640625,0 5.046875,0 5.46875,-0.03125 5.875,-0.03125 6.125,-0.03125 6.765625,0 7.015625,0 7.0625,0 7.1875,0 7.1875,-0.203125 7.1875,-0.3125 7.09375,-0.3125 6.953125,-0.3125 6.34375,-0.3125 6.34375,-0.375 6.3125,-0.671875 l -0.609375,-6.21875 c -0.015625,-0.203125 -0.015625,-0.25 -0.1875,-0.25 -0.15625,0 -0.203125,0.078125 -0.265625,0.171875 z M 2.984375,-2.609375 4.9375,-5.90625 5.265625,-2.609375 Z m 0,0"
               id="id-adaa35b1-8a32-4083-b2a9-5f2960819dc3" />
          </symbol>
        </g>
      </defs>
      <g
         id="id-a6cf478f-2758-48cb-bc53-799a1cede46c"
         transform="translate(-302.232,-139.579)">
        <g
           style="fill:#000000;fill-opacity:1"
           id="id-84c5765c-1481-4eff-8195-b210a3b05847">
          <g
             transform="translate(301.888,146.72)"
             id="g1462">
            <path
               style="stroke:none"
               d="M 1.78125,-1.140625 C 1.390625,-0.484375 1,-0.34375 0.5625,-0.3125 0.4375,-0.296875 0.34375,-0.296875 0.34375,-0.109375 0.34375,-0.046875 0.40625,0 0.484375,0 0.75,0 1.0625,-0.03125 1.328125,-0.03125 c 0.34375,0 0.6875,0.03125 1,0.03125 0.0625,0 0.1875,0 0.1875,-0.1875 0,-0.109375 -0.078125,-0.125 -0.15625,-0.125 -0.21875,-0.015625 -0.46875,-0.09375 -0.46875,-0.34375 0,-0.125 0.0625,-0.234375 0.140625,-0.375 l 0.765625,-1.265625 h 2.5 c 0.015625,0.203125 0.15625,1.5625 0.15625,1.65625 0,0.296875 -0.515625,0.328125 -0.71875,0.328125 C 4.59375,-0.3125 4.5,-0.3125 4.5,-0.109375 4.5,0 4.609375,0 4.640625,0 5.046875,0 5.46875,-0.03125 5.875,-0.03125 6.125,-0.03125 6.765625,0 7.015625,0 7.0625,0 7.1875,0 7.1875,-0.203125 7.1875,-0.3125 7.09375,-0.3125 6.953125,-0.3125 6.34375,-0.3125 6.34375,-0.375 6.3125,-0.671875 l -0.609375,-6.21875 c -0.015625,-0.203125 -0.015625,-0.25 -0.1875,-0.25 -0.15625,0 -0.203125,0.078125 -0.265625,0.171875 z M 2.984375,-2.609375 4.9375,-5.90625 5.265625,-2.609375 Z m 0,0"
               id="id-e32b3023-d9c5-4262-9b26-4173511d195d" />
          </g>
        </g>
      </g>
    </g>
    <g
       transform="matrix(0.705556,0,0,0.705556,40.823964,38.17474)"
       ns1:version="1.0.1"
       ns1:texconverter="xelatex"
       ns1:pdfconverter="inkscape"
       ns1:text="$$\n\\Omega\n$$"
       ns1:preamble="/home/reto/.config/inkscape/extensions/textext/packages_additional.tex"
       ns1:scale="2.0"
       ns1:alignment="middle center"
       ns1:jacobian_sqrt="0.705556"
       id="g1740">
      <defs
         id="id-e9457696-01b7-43ae-9bd9-19e9c1d81be1">
        <g
           id="id-b39c4325-e2d5-4954-aa1e-a5ea63354d66">
          <symbol
             overflow="visible"
             id="id-c15e0ce8-c8a6-4f5d-95dc-52009a87a07c">
            <path
               style="stroke:none"
               d=""
               id="id-7fb845ba-fe1a-466c-8000-fc9311409795" />
          </symbol>
          <symbol
             overflow="visible"
             id="id-1b035e4b-1c9e-48b2-8d30-868e6b5aed16">
            <path
               style="stroke:none"
               d="M 6.75,-1.609375 H 6.5 c -0.046875,0.25 -0.09375,0.484375 -0.1875,0.71875 -0.046875,0.15625 -0.078125,0.25 -0.65625,0.25 H 4.859375 C 5,-1.203125 5.296875,-1.6875 5.75,-2.34375 c 0.46875,-0.703125 0.875,-1.390625 0.875,-2.1875 0,-1.375 -1.34375,-2.5 -3.03125,-2.5 -1.703125,0 -3.03125,1.140625 -3.03125,2.5 0,0.796875 0.40625,1.484375 0.875,2.1875 0.4375,0.65625 0.75,1.140625 0.890625,1.703125 H 1.53125 C 0.953125,-0.640625 0.921875,-0.734375 0.875,-0.875 0.78125,-1.109375 0.734375,-1.359375 0.6875,-1.609375 h -0.25 L 0.765625,0 h 1.59375 c 0.21875,0 0.25,0 0.25,-0.203125 0,-0.703125 -0.3125,-1.578125 -0.53125,-2.21875 -0.21875,-0.578125 -0.5,-1.359375 -0.5,-2.109375 0,-1.59375 1.109375,-2.28125 2.015625,-2.28125 0.953125,0 2.015625,0.71875 2.015625,2.28125 0,0.75 -0.28125,1.5 -0.5625,2.3125 -0.15625,0.421875 -0.46875,1.328125 -0.46875,2.015625 C 4.578125,0 4.609375,0 4.828125,0 h 1.59375 z m 0,0"
               id="id-cf62145b-8ad6-4a97-a8a9-de79e8a0df92" />
          </symbol>
        </g>
      </defs>
      <g
         id="id-401a47a7-de28-494c-a4e8-858885783ba0"
         transform="translate(-302.464,-139.689)">
        <g
           style="fill:#000000;fill-opacity:1"
           id="id-0e1766d5-34f1-4ceb-8a6d-d804d9775ae9">
          <g
             transform="translate(302.026,146.72)"
             id="g1736">
            <path
               style="stroke:none"
               d="M 6.75,-1.609375 H 6.5 c -0.046875,0.25 -0.09375,0.484375 -0.1875,0.71875 -0.046875,0.15625 -0.078125,0.25 -0.65625,0.25 H 4.859375 C 5,-1.203125 5.296875,-1.6875 5.75,-2.34375 c 0.46875,-0.703125 0.875,-1.390625 0.875,-2.1875 0,-1.375 -1.34375,-2.5 -3.03125,-2.5 -1.703125,0 -3.03125,1.140625 -3.03125,2.5 0,0.796875 0.40625,1.484375 0.875,2.1875 0.4375,0.65625 0.75,1.140625 0.890625,1.703125 H 1.53125 C 0.953125,-0.640625 0.921875,-0.734375 0.875,-0.875 0.78125,-1.109375 0.734375,-1.359375 0.6875,-1.609375 h -0.25 L 0.765625,0 h 1.59375 c 0.21875,0 0.25,0 0.25,-0.203125 0,-0.703125 -0.3125,-1.578125 -0.53125,-2.21875 -0.21875,-0.578125 -0.5,-1.359375 -0.5,-2.109375 0,-1.59375 1.109375,-2.28125 2.015625,-2.28125 0.953125,0 2.015625,0.71875 2.015625,2.28125 0,0.75 -0.28125,1.5 -0.5625,2.3125 -0.15625,0.421875 -0.46875,1.328125 -0.46875,2.015625 C 4.578125,0 4.609375,0 4.828125,0 h 1.59375 z m 0,0"
               id="id-56b48c66-e138-4e1f-af1a-5c075ee59467" />
          </g>
        </g>
      </g>
    </g>
    <g
       transform="matrix(0.705556,0,0,0.705556,35.45026,24.70659)"
       ns1:version="1.0.1"
       ns1:texconverter="xelatex"
       ns1:pdfconverter="inkscape"
       ns1:text="$$\nB\n$$"
       ns1:preamble="/home/reto/.config/inkscape/extensions/textext/packages_additional.tex"
       ns1:scale="2.0"
       ns1:alignment="middle center"
       ns1:jacobian_sqrt="0.705556"
       id="g1843">
      <defs
         id="id-e536f013-1688-459f-8ba6-1532ee18f223">
        <g
           id="id-b7a730ce-206d-4cf3-bfe7-7994ab97b5a9">
          <symbol
             overflow="visible"
             id="id-e45b3e1c-b2f6-4022-95fc-cec2738ebfe1">
            <path
               style="stroke:none"
               d=""
               id="id-db27186b-87c9-4699-a2f2-6b1fda2818ad" />
          </symbol>
          <symbol
             overflow="visible"
             id="id-46d0b144-8825-48e6-bc1a-3cc7980f9b13">
            <path
               style="stroke:none"
               d="M 1.59375,-0.78125 C 1.5,-0.390625 1.46875,-0.3125 0.6875,-0.3125 c -0.171875,0 -0.265625,0 -0.265625,0.203125 C 0.421875,0 0.515625,0 0.6875,0 H 4.25 C 5.828125,0 7,-1.171875 7,-2.15625 7,-2.875 6.421875,-3.453125 5.453125,-3.5625 6.484375,-3.75 7.53125,-4.484375 7.53125,-5.4375 c 0,-0.734375 -0.65625,-1.375 -1.84375,-1.375 H 2.328125 c -0.1875,0 -0.28125,0 -0.28125,0.203125 0,0.109375 0.09375,0.109375 0.28125,0.109375 0.015625,0 0.203125,0 0.375,0.015625 0.171875,0.03125 0.265625,0.03125 0.265625,0.171875 0,0.03125 -0.015625,0.0625 -0.03125,0.1875 z m 1.5,-2.875 0.625,-2.46875 C 3.8125,-6.46875 3.828125,-6.5 4.25,-6.5 h 1.296875 c 0.875,0 1.078125,0.59375 1.078125,1.03125 0,0.875 -0.859375,1.8125 -2.0625,1.8125 z m -0.4375,3.34375 c -0.140625,0 -0.15625,0 -0.21875,0 -0.109375,-0.015625 -0.140625,-0.03125 -0.140625,-0.109375 0,-0.03125 0,-0.046875 0.0625,-0.21875 l 0.6875,-2.78125 h 1.875 c 0.953125,0 1.15625,0.734375 1.15625,1.15625 C 6.078125,-1.28125 5.1875,-0.3125 4,-0.3125 Z m 0,0"
               id="id-18b3cbb7-425e-4c8f-ac6a-7c8df19be8f4" />
          </symbol>
        </g>
      </defs>
      <g
         id="id-1bb1a5cb-27c9-4531-8218-7fcf413ad252"
         transform="translate(-302.018,-139.907)">
        <g
           style="fill:#000000;fill-opacity:1"
           id="id-b2d1d464-2e75-4a66-873f-d2ea4953620b">
          <g
             transform="translate(301.596,146.72)"
             id="g1839">
            <path
               style="stroke:none"
               d="M 1.59375,-0.78125 C 1.5,-0.390625 1.46875,-0.3125 0.6875,-0.3125 c -0.171875,0 -0.265625,0 -0.265625,0.203125 C 0.421875,0 0.515625,0 0.6875,0 H 4.25 C 5.828125,0 7,-1.171875 7,-2.15625 7,-2.875 6.421875,-3.453125 5.453125,-3.5625 6.484375,-3.75 7.53125,-4.484375 7.53125,-5.4375 c 0,-0.734375 -0.65625,-1.375 -1.84375,-1.375 H 2.328125 c -0.1875,0 -0.28125,0 -0.28125,0.203125 0,0.109375 0.09375,0.109375 0.28125,0.109375 0.015625,0 0.203125,0 0.375,0.015625 0.171875,0.03125 0.265625,0.03125 0.265625,0.171875 0,0.03125 -0.015625,0.0625 -0.03125,0.1875 z m 1.5,-2.875 0.625,-2.46875 C 3.8125,-6.46875 3.828125,-6.5 4.25,-6.5 h 1.296875 c 0.875,0 1.078125,0.59375 1.078125,1.03125 0,0.875 -0.859375,1.8125 -2.0625,1.8125 z m -0.4375,3.34375 c -0.140625,0 -0.15625,0 -0.21875,0 -0.109375,-0.015625 -0.140625,-0.03125 -0.140625,-0.109375 0,-0.03125 0,-0.046875 0.0625,-0.21875 l 0.6875,-2.78125 h 1.875 c 0.953125,0 1.15625,0.734375 1.15625,1.15625 C 6.078125,-1.28125 5.1875,-0.3125 4,-0.3125 Z m 0,0"
               id="id-51abd435-39d4-4860-a2a5-acb5e19c4060" />
          </g>
        </g>
      </g>
    </g>
    <g
       transform="matrix(0.705556,0,0,0.705556,125.06202,1.8026844)"
       ns1:version="1.0.1"
       ns1:texconverter="xelatex"
       ns1:pdfconverter="inkscape"
       ns1:text="$$\nA \\cup B\n$$"
       ns1:preamble="/home/reto/.config/inkscape/extensions/textext/packages_additional.tex"
       ns1:scale="2.0"
       ns1:alignment="middle center"
       ns1:jacobian_sqrt="0.705556"
       id="g2577">
      <defs
         id="id-af5c83f8-9c93-4753-b502-d8966f95d5cf">
        <g
           id="id-ce0b2dd7-3079-4e11-9537-7d371d329bc9">
          <symbol
             overflow="visible"
             id="id-c9bf3e11-0b40-469f-adeb-05f7d6021321">
            <path
               style="stroke:none"
               d=""
               id="id-1900b61d-6db3-442e-8025-e2a146e51fdc" />
          </symbol>
          <symbol
             overflow="visible"
             id="id-ebcaf4b1-dd46-4b20-a1f3-fb2fb76df5b5">
            <path
               style="stroke:none"
               d="M 1.78125,-1.140625 C 1.390625,-0.484375 1,-0.34375 0.5625,-0.3125 0.4375,-0.296875 0.34375,-0.296875 0.34375,-0.109375 0.34375,-0.046875 0.40625,0 0.484375,0 0.75,0 1.0625,-0.03125 1.328125,-0.03125 c 0.34375,0 0.6875,0.03125 1,0.03125 0.0625,0 0.1875,0 0.1875,-0.1875 0,-0.109375 -0.078125,-0.125 -0.15625,-0.125 -0.21875,-0.015625 -0.46875,-0.09375 -0.46875,-0.34375 0,-0.125 0.0625,-0.234375 0.140625,-0.375 l 0.765625,-1.265625 h 2.5 c 0.015625,0.203125 0.15625,1.5625 0.15625,1.65625 0,0.296875 -0.515625,0.328125 -0.71875,0.328125 C 4.59375,-0.3125 4.5,-0.3125 4.5,-0.109375 4.5,0 4.609375,0 4.640625,0 5.046875,0 5.46875,-0.03125 5.875,-0.03125 6.125,-0.03125 6.765625,0 7.015625,0 7.0625,0 7.1875,0 7.1875,-0.203125 7.1875,-0.3125 7.09375,-0.3125 6.953125,-0.3125 6.34375,-0.3125 6.34375,-0.375 6.3125,-0.671875 l -0.609375,-6.21875 c -0.015625,-0.203125 -0.015625,-0.25 -0.1875,-0.25 -0.15625,0 -0.203125,0.078125 -0.265625,0.171875 z M 2.984375,-2.609375 4.9375,-5.90625 5.265625,-2.609375 Z m 0,0"
               id="id-a3d7d440-b384-4644-84ae-f369228ea7b6" />
          </symbol>
          <symbol
             overflow="visible"
             id="id-f8a06456-4277-4d03-85d7-49c5ed8218b8">
            <path
               style="stroke:none"
               d="M 1.59375,-0.78125 C 1.5,-0.390625 1.46875,-0.3125 0.6875,-0.3125 c -0.171875,0 -0.265625,0 -0.265625,0.203125 C 0.421875,0 0.515625,0 0.6875,0 H 4.25 C 5.828125,0 7,-1.171875 7,-2.15625 7,-2.875 6.421875,-3.453125 5.453125,-3.5625 6.484375,-3.75 7.53125,-4.484375 7.53125,-5.4375 c 0,-0.734375 -0.65625,-1.375 -1.84375,-1.375 H 2.328125 c -0.1875,0 -0.28125,0 -0.28125,0.203125 0,0.109375 0.09375,0.109375 0.28125,0.109375 0.015625,0 0.203125,0 0.375,0.015625 0.171875,0.03125 0.265625,0.03125 0.265625,0.171875 0,0.03125 -0.015625,0.0625 -0.03125,0.1875 z m 1.5,-2.875 0.625,-2.46875 C 3.8125,-6.46875 3.828125,-6.5 4.25,-6.5 h 1.296875 c 0.875,0 1.078125,0.59375 1.078125,1.03125 0,0.875 -0.859375,1.8125 -2.0625,1.8125 z m -0.4375,3.34375 c -0.140625,0 -0.15625,0 -0.21875,0 -0.109375,-0.015625 -0.140625,-0.03125 -0.140625,-0.109375 0,-0.03125 0,-0.046875 0.0625,-0.21875 l 0.6875,-2.78125 h 1.875 c 0.953125,0 1.15625,0.734375 1.15625,1.15625 C 6.078125,-1.28125 5.1875,-0.3125 4,-0.3125 Z m 0,0"
               id="id-bd02c71f-1a38-415c-bff9-4577bee7509c" />
          </symbol>
          <symbol
             overflow="visible"
             id="id-ccddb2cc-bf34-4e8d-a109-57a3de3b39a6">
            <path
               style="stroke:none"
               d=""
               id="id-dfd0b182-98e7-4372-aa17-503cacaff4a8" />
          </symbol>
          <symbol
             overflow="visible"
             id="id-2880fa1b-8c07-4c41-ab1f-e6be09c1216a">
            <path
               style="stroke:none"
               d="m 6.09375,-5.609375 c 0,-0.171875 0,-0.359375 -0.203125,-0.359375 -0.203125,0 -0.203125,0.1875 -0.203125,0.359375 V -2 c 0,1.5 -1.625,1.828125 -2.375,1.828125 -0.4375,0 -1.0625,-0.09375 -1.59375,-0.4375 C 0.953125,-1.09375 0.953125,-1.734375 0.953125,-2 v -3.609375 c 0,-0.171875 0,-0.359375 -0.203125,-0.359375 -0.203125,0 -0.203125,0.1875 -0.203125,0.359375 v 3.65625 c 0,1.515625 1.53125,2.171875 2.765625,2.171875 1.296875,0 2.78125,-0.703125 2.78125,-2.15625 z m 0,0"
               id="id-e5fee896-11f9-4906-8aad-d6985424b057" />
          </symbol>
        </g>
      </defs>
      <g
         id="id-7db4a52c-0b48-4948-9388-b206ee2c847a"
         transform="translate(-292.669,-139.579)">
        <g
           style="fill:#000000;fill-opacity:1"
           id="id-d67a31d5-6404-42b0-a5a8-8be90525d1c9">
          <g
             transform="translate(292.325,146.72)"
             id="g2565">
            <path
               style="stroke:none"
               d="M 1.78125,-1.140625 C 1.390625,-0.484375 1,-0.34375 0.5625,-0.3125 0.4375,-0.296875 0.34375,-0.296875 0.34375,-0.109375 0.34375,-0.046875 0.40625,0 0.484375,0 0.75,0 1.0625,-0.03125 1.328125,-0.03125 c 0.34375,0 0.6875,0.03125 1,0.03125 0.0625,0 0.1875,0 0.1875,-0.1875 0,-0.109375 -0.078125,-0.125 -0.15625,-0.125 -0.21875,-0.015625 -0.46875,-0.09375 -0.46875,-0.34375 0,-0.125 0.0625,-0.234375 0.140625,-0.375 l 0.765625,-1.265625 h 2.5 c 0.015625,0.203125 0.15625,1.5625 0.15625,1.65625 0,0.296875 -0.515625,0.328125 -0.71875,0.328125 C 4.59375,-0.3125 4.5,-0.3125 4.5,-0.109375 4.5,0 4.609375,0 4.640625,0 5.046875,0 5.46875,-0.03125 5.875,-0.03125 6.125,-0.03125 6.765625,0 7.015625,0 7.0625,0 7.1875,0 7.1875,-0.203125 7.1875,-0.3125 7.09375,-0.3125 6.953125,-0.3125 6.34375,-0.3125 6.34375,-0.375 6.3125,-0.671875 l -0.609375,-6.21875 c -0.015625,-0.203125 -0.015625,-0.25 -0.1875,-0.25 -0.15625,0 -0.203125,0.078125 -0.265625,0.171875 z M 2.984375,-2.609375 4.9375,-5.90625 5.265625,-2.609375 Z m 0,0"
               id="id-c45bb290-d915-49fd-96e5-e764499d3b0c" />
          </g>
        </g>
        <g
           style="fill:#000000;fill-opacity:1"
           id="id-3f409455-f597-46a3-8a2e-6100fdad3340">
          <g
             transform="translate(302.011,146.72)"
             id="g2569">
            <path
               style="stroke:none"
               d="m 6.09375,-5.609375 c 0,-0.171875 0,-0.359375 -0.203125,-0.359375 -0.203125,0 -0.203125,0.1875 -0.203125,0.359375 V -2 c 0,1.5 -1.625,1.828125 -2.375,1.828125 -0.4375,0 -1.0625,-0.09375 -1.59375,-0.4375 C 0.953125,-1.09375 0.953125,-1.734375 0.953125,-2 v -3.609375 c 0,-0.171875 0,-0.359375 -0.203125,-0.359375 -0.203125,0 -0.203125,0.1875 -0.203125,0.359375 v 3.65625 c 0,1.515625 1.53125,2.171875 2.765625,2.171875 1.296875,0 2.78125,-0.703125 2.78125,-2.15625 z m 0,0"
               id="id-f85011dc-25e5-4000-9624-31e8ac7f2470" />
          </g>
        </g>
        <g
           style="fill:#000000;fill-opacity:1"
           id="id-414cc94b-2f38-47b7-b7bf-c73d18161608">
          <g
             transform="translate(310.866,146.72)"
             id="g2573">
            <path
               style="stroke:none"
               d="M 1.59375,-0.78125 C 1.5,-0.390625 1.46875,-0.3125 0.6875,-0.3125 c -0.171875,0 -0.265625,0 -0.265625,0.203125 C 0.421875,0 0.515625,0 0.6875,0 H 4.25 C 5.828125,0 7,-1.171875 7,-2.15625 7,-2.875 6.421875,-3.453125 5.453125,-3.5625 6.484375,-3.75 7.53125,-4.484375 7.53125,-5.4375 c 0,-0.734375 -0.65625,-1.375 -1.84375,-1.375 H 2.328125 c -0.1875,0 -0.28125,0 -0.28125,0.203125 0,0.109375 0.09375,0.109375 0.28125,0.109375 0.015625,0 0.203125,0 0.375,0.015625 0.171875,0.03125 0.265625,0.03125 0.265625,0.171875 0,0.03125 -0.015625,0.0625 -0.03125,0.1875 z m 1.5,-2.875 0.625,-2.46875 C 3.8125,-6.46875 3.828125,-6.5 4.25,-6.5 h 1.296875 c 0.875,0 1.078125,0.59375 1.078125,1.03125 0,0.875 -0.859375,1.8125 -2.0625,1.8125 z m -0.4375,3.34375 c -0.140625,0 -0.15625,0 -0.21875,0 -0.109375,-0.015625 -0.140625,-0.03125 -0.140625,-0.109375 0,-0.03125 0,-0.046875 0.0625,-0.21875 l 0.6875,-2.78125 h 1.875 c 0.953125,0 1.15625,0.734375 1.15625,1.15625 C 6.078125,-1.28125 5.1875,-0.3125 4,-0.3125 Z m 0,0"
               id="id-fa4d7426-7ef0-4810-9a58-2b8bb4492e58" />
          </g>
        </g>
      </g>
    </g>
    <g
       transform="matrix(0.705556,0,0,0.705556,69.937777,2.6295078)"
       ns1:version="1.0.1"
       ns1:texconverter="xelatex"
       ns1:pdfconverter="inkscape"
       ns1:text="$$\nA \\cap B\n$$"
       ns1:preamble="/home/reto/.config/inkscape/extensions/textext/packages_additional.tex"
       ns1:scale="2.0"
       ns1:alignment="middle center"
       ns1:jacobian_sqrt="0.705556"
       id="g2740">
      <defs
         id="id-e7f94e02-1388-4647-9ab1-0f308f9dd2cf">
        <g
           id="id-3fb87676-aeff-4c98-a891-9d6f933bee43">
          <symbol
             overflow="visible"
             id="id-dc593397-1827-474a-b70c-36637f603285">
            <path
               style="stroke:none"
               d=""
               id="id-2af6f655-b8a7-46a3-b867-9b5e356f8665" />
          </symbol>
          <symbol
             overflow="visible"
             id="id-f0a11eb8-ad16-4465-9010-35091441fa23">
            <path
               style="stroke:none"
               d="M 1.78125,-1.140625 C 1.390625,-0.484375 1,-0.34375 0.5625,-0.3125 0.4375,-0.296875 0.34375,-0.296875 0.34375,-0.109375 0.34375,-0.046875 0.40625,0 0.484375,0 0.75,0 1.0625,-0.03125 1.328125,-0.03125 c 0.34375,0 0.6875,0.03125 1,0.03125 0.0625,0 0.1875,0 0.1875,-0.1875 0,-0.109375 -0.078125,-0.125 -0.15625,-0.125 -0.21875,-0.015625 -0.46875,-0.09375 -0.46875,-0.34375 0,-0.125 0.0625,-0.234375 0.140625,-0.375 l 0.765625,-1.265625 h 2.5 c 0.015625,0.203125 0.15625,1.5625 0.15625,1.65625 0,0.296875 -0.515625,0.328125 -0.71875,0.328125 C 4.59375,-0.3125 4.5,-0.3125 4.5,-0.109375 4.5,0 4.609375,0 4.640625,0 5.046875,0 5.46875,-0.03125 5.875,-0.03125 6.125,-0.03125 6.765625,0 7.015625,0 7.0625,0 7.1875,0 7.1875,-0.203125 7.1875,-0.3125 7.09375,-0.3125 6.953125,-0.3125 6.34375,-0.3125 6.34375,-0.375 6.3125,-0.671875 l -0.609375,-6.21875 c -0.015625,-0.203125 -0.015625,-0.25 -0.1875,-0.25 -0.15625,0 -0.203125,0.078125 -0.265625,0.171875 z M 2.984375,-2.609375 4.9375,-5.90625 5.265625,-2.609375 Z m 0,0"
               id="id-45f5b0d2-af49-491d-a71b-46312b7a8ab1" />
          </symbol>
          <symbol
             overflow="visible"
             id="id-a638cde3-dd91-4da6-ae8a-629ee6fc1282">
            <path
               style="stroke:none"
               d="M 1.59375,-0.78125 C 1.5,-0.390625 1.46875,-0.3125 0.6875,-0.3125 c -0.171875,0 -0.265625,0 -0.265625,0.203125 C 0.421875,0 0.515625,0 0.6875,0 H 4.25 C 5.828125,0 7,-1.171875 7,-2.15625 7,-2.875 6.421875,-3.453125 5.453125,-3.5625 6.484375,-3.75 7.53125,-4.484375 7.53125,-5.4375 c 0,-0.734375 -0.65625,-1.375 -1.84375,-1.375 H 2.328125 c -0.1875,0 -0.28125,0 -0.28125,0.203125 0,0.109375 0.09375,0.109375 0.28125,0.109375 0.015625,0 0.203125,0 0.375,0.015625 0.171875,0.03125 0.265625,0.03125 0.265625,0.171875 0,0.03125 -0.015625,0.0625 -0.03125,0.1875 z m 1.5,-2.875 0.625,-2.46875 C 3.8125,-6.46875 3.828125,-6.5 4.25,-6.5 h 1.296875 c 0.875,0 1.078125,0.59375 1.078125,1.03125 0,0.875 -0.859375,1.8125 -2.0625,1.8125 z m -0.4375,3.34375 c -0.140625,0 -0.15625,0 -0.21875,0 -0.109375,-0.015625 -0.140625,-0.03125 -0.140625,-0.109375 0,-0.03125 0,-0.046875 0.0625,-0.21875 l 0.6875,-2.78125 h 1.875 c 0.953125,0 1.15625,0.734375 1.15625,1.15625 C 6.078125,-1.28125 5.1875,-0.3125 4,-0.3125 Z m 0,0"
               id="id-79f7b7d5-3a9a-4054-bfe1-ec589e426ad3" />
          </symbol>
          <symbol
             overflow="visible"
             id="id-5e8cfac9-f453-499f-930e-03f3416eebac">
            <path
               style="stroke:none"
               d=""
               id="id-07217628-84b8-4983-a14f-3a3cada799f3" />
          </symbol>
          <symbol
             overflow="visible"
             id="id-9536bd3e-8614-4043-b67e-cc1786ca49a0">
            <path
               style="stroke:none"
               d="m 6.09375,-3.78125 c 0,-1.515625 -1.53125,-2.1875 -2.78125,-2.1875 -1.28125,0 -2.765625,0.703125 -2.765625,2.171875 v 3.65625 c 0,0.1875 0,0.359375 0.203125,0.359375 0.203125,0 0.203125,-0.171875 0.203125,-0.359375 V -3.75 c 0,-1.5 1.625,-1.8125 2.359375,-1.8125 0.453125,0 1.078125,0.09375 1.609375,0.421875 C 5.6875,-4.640625 5.6875,-4 5.6875,-3.734375 v 3.59375 c 0,0.1875 0,0.359375 0.203125,0.359375 0.203125,0 0.203125,-0.171875 0.203125,-0.359375 z m 0,0"
               id="id-7b42c12a-6200-4f28-9a51-65d6044ae011" />
          </symbol>
        </g>
      </defs>
      <g
         id="id-fa4c0b22-edcc-462e-969c-fbbc991629b8"
         transform="translate(-292.669,-139.579)">
        <g
           style="fill:#000000;fill-opacity:1"
           id="id-d0ee81b7-1952-48a7-b9fe-3361ff2168b5">
          <g
             transform="translate(292.325,146.72)"
             id="g2728">
            <path
               style="stroke:none"
               d="M 1.78125,-1.140625 C 1.390625,-0.484375 1,-0.34375 0.5625,-0.3125 0.4375,-0.296875 0.34375,-0.296875 0.34375,-0.109375 0.34375,-0.046875 0.40625,0 0.484375,0 0.75,0 1.0625,-0.03125 1.328125,-0.03125 c 0.34375,0 0.6875,0.03125 1,0.03125 0.0625,0 0.1875,0 0.1875,-0.1875 0,-0.109375 -0.078125,-0.125 -0.15625,-0.125 -0.21875,-0.015625 -0.46875,-0.09375 -0.46875,-0.34375 0,-0.125 0.0625,-0.234375 0.140625,-0.375 l 0.765625,-1.265625 h 2.5 c 0.015625,0.203125 0.15625,1.5625 0.15625,1.65625 0,0.296875 -0.515625,0.328125 -0.71875,0.328125 C 4.59375,-0.3125 4.5,-0.3125 4.5,-0.109375 4.5,0 4.609375,0 4.640625,0 5.046875,0 5.46875,-0.03125 5.875,-0.03125 6.125,-0.03125 6.765625,0 7.015625,0 7.0625,0 7.1875,0 7.1875,-0.203125 7.1875,-0.3125 7.09375,-0.3125 6.953125,-0.3125 6.34375,-0.3125 6.34375,-0.375 6.3125,-0.671875 l -0.609375,-6.21875 c -0.015625,-0.203125 -0.015625,-0.25 -0.1875,-0.25 -0.15625,0 -0.203125,0.078125 -0.265625,0.171875 z M 2.984375,-2.609375 4.9375,-5.90625 5.265625,-2.609375 Z m 0,0"
               id="id-074e5f99-3fb8-430e-9938-2de23157d4b9" />
          </g>
        </g>
        <g
           style="fill:#000000;fill-opacity:1"
           id="id-20eeb26f-5a6d-40cb-af1d-c1c582509ca4">
          <g
             transform="translate(302.011,146.72)"
             id="g2732">
            <path
               style="stroke:none"
               d="m 6.09375,-3.78125 c 0,-1.515625 -1.53125,-2.1875 -2.78125,-2.1875 -1.28125,0 -2.765625,0.703125 -2.765625,2.171875 v 3.65625 c 0,0.1875 0,0.359375 0.203125,0.359375 0.203125,0 0.203125,-0.171875 0.203125,-0.359375 V -3.75 c 0,-1.5 1.625,-1.8125 2.359375,-1.8125 0.453125,0 1.078125,0.09375 1.609375,0.421875 C 5.6875,-4.640625 5.6875,-4 5.6875,-3.734375 v 3.59375 c 0,0.1875 0,0.359375 0.203125,0.359375 0.203125,0 0.203125,-0.171875 0.203125,-0.359375 z m 0,0"
               id="id-662295d3-7cea-4f5d-bcb3-d846c1f78b87" />
          </g>
        </g>
        <g
           style="fill:#000000;fill-opacity:1"
           id="id-bb4df66b-83e3-493f-a43d-76b99d0adf9d">
          <g
             transform="translate(310.866,146.72)"
             id="g2736">
            <path
               style="stroke:none"
               d="M 1.59375,-0.78125 C 1.5,-0.390625 1.46875,-0.3125 0.6875,-0.3125 c -0.171875,0 -0.265625,0 -0.265625,0.203125 C 0.421875,0 0.515625,0 0.6875,0 H 4.25 C 5.828125,0 7,-1.171875 7,-2.15625 7,-2.875 6.421875,-3.453125 5.453125,-3.5625 6.484375,-3.75 7.53125,-4.484375 7.53125,-5.4375 c 0,-0.734375 -0.65625,-1.375 -1.84375,-1.375 H 2.328125 c -0.1875,0 -0.28125,0 -0.28125,0.203125 0,0.109375 0.09375,0.109375 0.28125,0.109375 0.015625,0 0.203125,0 0.375,0.015625 0.171875,0.03125 0.265625,0.03125 0.265625,0.171875 0,0.03125 -0.015625,0.0625 -0.03125,0.1875 z m 1.5,-2.875 0.625,-2.46875 C 3.8125,-6.46875 3.828125,-6.5 4.25,-6.5 h 1.296875 c 0.875,0 1.078125,0.59375 1.078125,1.03125 0,0.875 -0.859375,1.8125 -2.0625,1.8125 z m -0.4375,3.34375 c -0.140625,0 -0.15625,0 -0.21875,0 -0.109375,-0.015625 -0.140625,-0.03125 -0.140625,-0.109375 0,-0.03125 0,-0.046875 0.0625,-0.21875 l 0.6875,-2.78125 h 1.875 c 0.953125,0 1.15625,0.734375 1.15625,1.15625 C 6.078125,-1.28125 5.1875,-0.3125 4,-0.3125 Z m 0,0"
               id="id-3497c257-8e4c-4969-a197-ba169be83340" />
          </g>
        </g>
      </g>
    </g>
    <g
       transform="matrix(0.705556,0,0,0.705556,15.850916,53.558763)"
       ns1:version="1.0.1"
       ns1:texconverter="xelatex"
       ns1:pdfconverter="inkscape"
       ns1:text="$$\nA \\triangle B\n$$"
       ns1:preamble="/home/reto/.config/inkscape/extensions/textext/packages_additional.tex"
       ns1:scale="2.0"
       ns1:alignment="middle center"
       ns1:jacobian_sqrt="0.705556"
       id="g2926">
      <defs
         id="id-c5c07ccd-8e0e-4986-9569-0e554620a8db">
        <g
           id="id-1ef65c9f-0e96-48a6-a230-dc8bb677039b">
          <symbol
             overflow="visible"
             id="id-af0ff4cb-34de-4835-879d-09b0f184b623">
            <path
               style="stroke:none"
               d=""
               id="id-66e36d22-9d1d-45f4-ae73-eadeafd2a731" />
          </symbol>
          <symbol
             overflow="visible"
             id="id-9627dd87-ae37-43c1-8786-f500ffce0752">
            <path
               style="stroke:none"
               d="M 1.78125,-1.140625 C 1.390625,-0.484375 1,-0.34375 0.5625,-0.3125 0.4375,-0.296875 0.34375,-0.296875 0.34375,-0.109375 0.34375,-0.046875 0.40625,0 0.484375,0 0.75,0 1.0625,-0.03125 1.328125,-0.03125 c 0.34375,0 0.6875,0.03125 1,0.03125 0.0625,0 0.1875,0 0.1875,-0.1875 0,-0.109375 -0.078125,-0.125 -0.15625,-0.125 -0.21875,-0.015625 -0.46875,-0.09375 -0.46875,-0.34375 0,-0.125 0.0625,-0.234375 0.140625,-0.375 l 0.765625,-1.265625 h 2.5 c 0.015625,0.203125 0.15625,1.5625 0.15625,1.65625 0,0.296875 -0.515625,0.328125 -0.71875,0.328125 C 4.59375,-0.3125 4.5,-0.3125 4.5,-0.109375 4.5,0 4.609375,0 4.640625,0 5.046875,0 5.46875,-0.03125 5.875,-0.03125 6.125,-0.03125 6.765625,0 7.015625,0 7.0625,0 7.1875,0 7.1875,-0.203125 7.1875,-0.3125 7.09375,-0.3125 6.953125,-0.3125 6.34375,-0.3125 6.34375,-0.375 6.3125,-0.671875 l -0.609375,-6.21875 c -0.015625,-0.203125 -0.015625,-0.25 -0.1875,-0.25 -0.15625,0 -0.203125,0.078125 -0.265625,0.171875 z M 2.984375,-2.609375 4.9375,-5.90625 5.265625,-2.609375 Z m 0,0"
               id="id-33a65be1-1bd4-461f-b4f1-f5317bb6567c" />
          </symbol>
          <symbol
             overflow="visible"
             id="id-5979a86e-9712-4cc0-acc2-4ad756649d8a">
            <path
               style="stroke:none"
               d="M 1.59375,-0.78125 C 1.5,-0.390625 1.46875,-0.3125 0.6875,-0.3125 c -0.171875,0 -0.265625,0 -0.265625,0.203125 C 0.421875,0 0.515625,0 0.6875,0 H 4.25 C 5.828125,0 7,-1.171875 7,-2.15625 7,-2.875 6.421875,-3.453125 5.453125,-3.5625 6.484375,-3.75 7.53125,-4.484375 7.53125,-5.4375 c 0,-0.734375 -0.65625,-1.375 -1.84375,-1.375 H 2.328125 c -0.1875,0 -0.28125,0 -0.28125,0.203125 0,0.109375 0.09375,0.109375 0.28125,0.109375 0.015625,0 0.203125,0 0.375,0.015625 0.171875,0.03125 0.265625,0.03125 0.265625,0.171875 0,0.03125 -0.015625,0.0625 -0.03125,0.1875 z m 1.5,-2.875 0.625,-2.46875 C 3.8125,-6.46875 3.828125,-6.5 4.25,-6.5 h 1.296875 c 0.875,0 1.078125,0.59375 1.078125,1.03125 0,0.875 -0.859375,1.8125 -2.0625,1.8125 z m -0.4375,3.34375 c -0.140625,0 -0.15625,0 -0.21875,0 -0.109375,-0.015625 -0.140625,-0.03125 -0.140625,-0.109375 0,-0.03125 0,-0.046875 0.0625,-0.21875 l 0.6875,-2.78125 h 1.875 c 0.953125,0 1.15625,0.734375 1.15625,1.15625 C 6.078125,-1.28125 5.1875,-0.3125 4,-0.3125 Z m 0,0"
               id="id-f89c82e3-c8c4-4509-ba26-56f68c4dc5f6" />
          </symbol>
          <symbol
             overflow="visible"
             id="id-1537340f-d004-45ab-b6d8-4fe7518ceef6">
            <path
               style="stroke:none"
               d=""
               id="id-18a38fcb-c8ea-4e7c-81f4-7ae82a6721f0" />
          </symbol>
          <symbol
             overflow="visible"
             id="id-7ea7933e-bf66-453c-bebc-7f634dbfcebc">
            <path
               style="stroke:none"
               d="m 4.640625,-6.953125 c -0.0625,-0.109375 -0.09375,-0.1875 -0.21875,-0.1875 -0.109375,0 -0.140625,0.046875 -0.21875,0.203125 l -3.53125,6.546875 c -0.078125,0.125 -0.078125,0.15625 -0.078125,0.1875 C 0.59375,0 0.796875,0 0.953125,0 h 6.96875 c 0.15625,0 0.34375,0 0.34375,-0.203125 0,-0.046875 -0.015625,-0.078125 -0.0625,-0.15625 z m -0.21875,0.4375 3.3125,6.109375 h -6.625 z m 0,0"
               id="id-3893685a-1f78-471d-a5a9-516b42c23539" />
          </symbol>
        </g>
      </defs>
      <g
         id="id-56dca03e-a8f6-4a98-a2f5-9fde056a310f"
         transform="translate(-293.776,-139.579)">
        <g
           style="fill:#000000;fill-opacity:1"
           id="id-7ad28146-2c69-4a9a-aee3-d261abf6ddf9">
          <g
             transform="translate(293.432,146.72)"
             id="g2914">
            <path
               style="stroke:none"
               d="M 1.78125,-1.140625 C 1.390625,-0.484375 1,-0.34375 0.5625,-0.3125 0.4375,-0.296875 0.34375,-0.296875 0.34375,-0.109375 0.34375,-0.046875 0.40625,0 0.484375,0 0.75,0 1.0625,-0.03125 1.328125,-0.03125 c 0.34375,0 0.6875,0.03125 1,0.03125 0.0625,0 0.1875,0 0.1875,-0.1875 0,-0.109375 -0.078125,-0.125 -0.15625,-0.125 -0.21875,-0.015625 -0.46875,-0.09375 -0.46875,-0.34375 0,-0.125 0.0625,-0.234375 0.140625,-0.375 l 0.765625,-1.265625 h 2.5 c 0.015625,0.203125 0.15625,1.5625 0.15625,1.65625 0,0.296875 -0.515625,0.328125 -0.71875,0.328125 C 4.59375,-0.3125 4.5,-0.3125 4.5,-0.109375 4.5,0 4.609375,0 4.640625,0 5.046875,0 5.46875,-0.03125 5.875,-0.03125 6.125,-0.03125 6.765625,0 7.015625,0 7.0625,0 7.1875,0 7.1875,-0.203125 7.1875,-0.3125 7.09375,-0.3125 6.953125,-0.3125 6.34375,-0.3125 6.34375,-0.375 6.3125,-0.671875 l -0.609375,-6.21875 c -0.015625,-0.203125 -0.015625,-0.25 -0.1875,-0.25 -0.15625,0 -0.203125,0.078125 -0.265625,0.171875 z M 2.984375,-2.609375 4.9375,-5.90625 5.265625,-2.609375 Z m 0,0"
               id="id-e3aeacfd-3886-45bd-8803-19fd67bb0683" />
          </g>
        </g>
        <g
           style="fill:#000000;fill-opacity:1"
           id="id-af233b61-2479-4f64-963b-4dea536692ef">
          <g
             transform="translate(300.904,146.72)"
             id="g2918">
            <path
               style="stroke:none"
               d="m 4.640625,-6.953125 c -0.0625,-0.109375 -0.09375,-0.1875 -0.21875,-0.1875 -0.109375,0 -0.140625,0.046875 -0.21875,0.203125 l -3.53125,6.546875 c -0.078125,0.125 -0.078125,0.15625 -0.078125,0.1875 C 0.59375,0 0.796875,0 0.953125,0 h 6.96875 c 0.15625,0 0.34375,0 0.34375,-0.203125 0,-0.046875 -0.015625,-0.078125 -0.0625,-0.15625 z m -0.21875,0.4375 3.3125,6.109375 h -6.625 z m 0,0"
               id="id-fd6eed1b-cb6c-45c1-8f67-b9e23204d997" />
          </g>
        </g>
        <g
           style="fill:#000000;fill-opacity:1"
           id="id-c3235438-b604-4c97-aecc-a01b2a7b4a43">
          <g
             transform="translate(309.759,146.72)"
             id="g2922">
            <path
               style="stroke:none"
               d="M 1.59375,-0.78125 C 1.5,-0.390625 1.46875,-0.3125 0.6875,-0.3125 c -0.171875,0 -0.265625,0 -0.265625,0.203125 C 0.421875,0 0.515625,0 0.6875,0 H 4.25 C 5.828125,0 7,-1.171875 7,-2.15625 7,-2.875 6.421875,-3.453125 5.453125,-3.5625 6.484375,-3.75 7.53125,-4.484375 7.53125,-5.4375 c 0,-0.734375 -0.65625,-1.375 -1.84375,-1.375 H 2.328125 c -0.1875,0 -0.28125,0 -0.28125,0.203125 0,0.109375 0.09375,0.109375 0.28125,0.109375 0.015625,0 0.203125,0 0.375,0.015625 0.171875,0.03125 0.265625,0.03125 0.265625,0.171875 0,0.03125 -0.015625,0.0625 -0.03125,0.1875 z m 1.5,-2.875 0.625,-2.46875 C 3.8125,-6.46875 3.828125,-6.5 4.25,-6.5 h 1.296875 c 0.875,0 1.078125,0.59375 1.078125,1.03125 0,0.875 -0.859375,1.8125 -2.0625,1.8125 z m -0.4375,3.34375 c -0.140625,0 -0.15625,0 -0.21875,0 -0.109375,-0.015625 -0.140625,-0.03125 -0.140625,-0.109375 0,-0.03125 0,-0.046875 0.0625,-0.21875 l 0.6875,-2.78125 h 1.875 c 0.953125,0 1.15625,0.734375 1.15625,1.15625 C 6.078125,-1.28125 5.1875,-0.3125 4,-0.3125 Z m 0,0"
               id="id-e3bee38f-34a1-4f3e-a151-c54743230dc6" />
          </g>
        </g>
      </g>
    </g>
    <g
       transform="matrix(0.705556,0,0,0.705556,116.92863,50.244994)"
       ns1:version="1.0.1"
       ns1:texconverter="xelatex"
       ns1:pdfconverter="inkscape"
       ns1:text="$$\nA^\\complement = \\Omega \\setminus A\n$$"
       ns1:preamble="/home/reto/.config/inkscape/extensions/textext/packages_additional.tex"
       ns1:scale="2.0"
       ns1:alignment="middle center"
       ns1:jacobian_sqrt="0.705556"
       id="g3467">
      <defs
         id="id-b3b9e2b5-e174-4072-9fd2-d3cfc1665d60">
        <g
           id="id-8ca508cd-7481-4ffe-a893-20ce0970c9de">
          <symbol
             overflow="visible"
             id="id-bf89c05b-5132-4a88-899f-9368ebfd456d">
            <path
               style="stroke:none"
               d=""
               id="id-fb504fce-0eee-49b1-8b3a-f67a2386df80" />
          </symbol>
          <symbol
             overflow="visible"
             id="id-e15e64d3-e31b-4b70-aee2-0073f7d990a4">
            <path
               style="stroke:none"
               d="M 1.78125,-1.140625 C 1.390625,-0.484375 1,-0.34375 0.5625,-0.3125 0.4375,-0.296875 0.34375,-0.296875 0.34375,-0.109375 0.34375,-0.046875 0.40625,0 0.484375,0 0.75,0 1.0625,-0.03125 1.328125,-0.03125 c 0.34375,0 0.6875,0.03125 1,0.03125 0.0625,0 0.1875,0 0.1875,-0.1875 0,-0.109375 -0.078125,-0.125 -0.15625,-0.125 -0.21875,-0.015625 -0.46875,-0.09375 -0.46875,-0.34375 0,-0.125 0.0625,-0.234375 0.140625,-0.375 l 0.765625,-1.265625 h 2.5 c 0.015625,0.203125 0.15625,1.5625 0.15625,1.65625 0,0.296875 -0.515625,0.328125 -0.71875,0.328125 C 4.59375,-0.3125 4.5,-0.3125 4.5,-0.109375 4.5,0 4.609375,0 4.640625,0 5.046875,0 5.46875,-0.03125 5.875,-0.03125 6.125,-0.03125 6.765625,0 7.015625,0 7.0625,0 7.1875,0 7.1875,-0.203125 7.1875,-0.3125 7.09375,-0.3125 6.953125,-0.3125 6.34375,-0.3125 6.34375,-0.375 6.3125,-0.671875 l -0.609375,-6.21875 c -0.015625,-0.203125 -0.015625,-0.25 -0.1875,-0.25 -0.15625,0 -0.203125,0.078125 -0.265625,0.171875 z M 2.984375,-2.609375 4.9375,-5.90625 5.265625,-2.609375 Z m 0,0"
               id="id-b8114aad-f2b0-4fd0-9b37-95b3f614aa54" />
          </symbol>
          <symbol
             overflow="visible"
             id="id-92d74651-a1a2-4000-a23d-1ff715102153">
            <path
               style="stroke:none"
               d=""
               id="id-85177a63-2b14-4801-91af-bd8756658b04" />
          </symbol>
          <symbol
             overflow="visible"
             id="id-fbbdd09f-22a6-4866-bb13-ed059412b212">
            <path
               style="stroke:none"
               d="m 3.53125,-1.765625 c 0,-0.125 0,-0.1875 -0.078125,-0.28125 -0.0625,-0.078125 -0.171875,-0.125 -0.265625,-0.125 -0.078125,0 -0.203125,0.046875 -0.265625,0.125 -0.078125,0.109375 -0.078125,0.1875 -0.078125,0.34375 v 0.65625 c 0,0.140625 0,0.28125 -0.265625,0.40625 -0.21875,0.09375 -0.46875,0.09375 -0.546875,0.09375 -0.203125,0 -0.40625,-0.03125 -0.5625,-0.109375 -0.25,-0.125 -0.25,-0.25 -0.25,-0.390625 v -3.65625 c 0,-0.140625 0,-0.28125 0.265625,-0.390625 0.234375,-0.109375 0.46875,-0.109375 0.546875,-0.109375 0.203125,0 0.421875,0.046875 0.5625,0.109375 0.25,0.125 0.25,0.25 0.25,0.390625 v 0.65625 c 0,0.15625 0,0.234375 0.0625,0.328125 0.09375,0.125 0.234375,0.140625 0.28125,0.140625 0.046875,0 0.171875,-0.015625 0.25,-0.109375 0.09375,-0.09375 0.09375,-0.1875 0.09375,-0.296875 V -4.75 c 0,-0.84375 -0.859375,-1.140625 -1.5,-1.140625 -0.625,0 -1.484375,0.28125 -1.484375,1.140625 V -1 c 0,0.84375 0.84375,1.140625 1.484375,1.140625 0.640625,0 1.5,-0.28125 1.5,-1.140625 z m 0,0"
               id="id-db060099-5b83-4819-8c4a-fd651b24e501" />
          </symbol>
          <symbol
             overflow="visible"
             id="id-1b9000a8-17a3-43ac-8e35-2eee5ad697d5">
            <path
               style="stroke:none"
               d=""
               id="id-8d340185-6c31-421f-acb2-6a9e82efee9c" />
          </symbol>
          <symbol
             overflow="visible"
             id="id-24719fba-0997-4ffa-b824-f23aecffbb8d">
            <path
               style="stroke:none"
               d="m 6.84375,-3.265625 c 0.15625,0 0.34375,0 0.34375,-0.1875 C 7.1875,-3.65625 7,-3.65625 6.859375,-3.65625 h -5.96875 c -0.140625,0 -0.328125,0 -0.328125,0.203125 0,0.1875 0.1875,0.1875 0.328125,0.1875 z m 0.015625,1.9375 c 0.140625,0 0.328125,0 0.328125,-0.203125 0,-0.1875 -0.1875,-0.1875 -0.34375,-0.1875 H 0.890625 c -0.140625,0 -0.328125,0 -0.328125,0.1875 0,0.203125 0.1875,0.203125 0.328125,0.203125 z m 0,0"
               id="id-611088dd-df29-4cc1-8c2a-d6eb91dd6e18" />
          </symbol>
          <symbol
             overflow="visible"
             id="id-9d797114-b112-4ab6-9f7c-902c11199590">
            <path
               style="stroke:none"
               d="M 6.75,-1.609375 H 6.5 c -0.046875,0.25 -0.09375,0.484375 -0.1875,0.71875 -0.046875,0.15625 -0.078125,0.25 -0.65625,0.25 H 4.859375 C 5,-1.203125 5.296875,-1.6875 5.75,-2.34375 c 0.46875,-0.703125 0.875,-1.390625 0.875,-2.1875 0,-1.375 -1.34375,-2.5 -3.03125,-2.5 -1.703125,0 -3.03125,1.140625 -3.03125,2.5 0,0.796875 0.40625,1.484375 0.875,2.1875 0.4375,0.65625 0.75,1.140625 0.890625,1.703125 H 1.53125 C 0.953125,-0.640625 0.921875,-0.734375 0.875,-0.875 0.78125,-1.109375 0.734375,-1.359375 0.6875,-1.609375 h -0.25 L 0.765625,0 h 1.59375 c 0.21875,0 0.25,0 0.25,-0.203125 0,-0.703125 -0.3125,-1.578125 -0.53125,-2.21875 -0.21875,-0.578125 -0.5,-1.359375 -0.5,-2.109375 0,-1.59375 1.109375,-2.28125 2.015625,-2.28125 0.953125,0 2.015625,0.71875 2.015625,2.28125 0,0.75 -0.28125,1.5 -0.5625,2.3125 -0.15625,0.421875 -0.46875,1.328125 -0.46875,2.015625 C 4.578125,0 4.609375,0 4.828125,0 h 1.59375 z m 0,0"
               id="id-e56f448a-ccd4-4eac-92ab-5a64508b9eaf" />
          </symbol>
          <symbol
             overflow="visible"
             id="id-ee7c6c5a-3a55-48b5-a20c-6a94ef65e9d4">
            <path
               style="stroke:none"
               d=""
               id="id-02a4e7dd-5415-4a89-a123-e3dcd303042d" />
          </symbol>
          <symbol
             overflow="visible"
             id="id-538593dd-7a9c-4692-9865-203f2e99acc2">
            <path
               style="stroke:none"
               d="m 4,2.25 c 0.046875,0.140625 0.09375,0.25 0.234375,0.25 0.109375,0 0.1875,-0.09375 0.1875,-0.203125 0,-0.03125 0,-0.046875 -0.046875,-0.15625 l -3.40625,-9.375 c -0.0625,-0.171875 -0.09375,-0.25 -0.21875,-0.25 -0.109375,0 -0.203125,0.09375 -0.203125,0.203125 0,0.03125 0,0.046875 0.046875,0.15625 z m 0,0"
               id="id-e2122e85-7689-46e5-8893-901611eb801e" />
          </symbol>
        </g>
      </defs>
      <g
         id="id-8eb42da0-2b75-494e-93c5-255824357739"
         transform="translate(-281.262,-136.715)">
        <g
           style="fill:#000000;fill-opacity:1"
           id="id-498f971d-b9b0-4185-bb73-6d921649b0ef">
          <g
             transform="translate(280.918,146.72)"
             id="g3443">
            <path
               style="stroke:none"
               d="M 1.78125,-1.140625 C 1.390625,-0.484375 1,-0.34375 0.5625,-0.3125 0.4375,-0.296875 0.34375,-0.296875 0.34375,-0.109375 0.34375,-0.046875 0.40625,0 0.484375,0 0.75,0 1.0625,-0.03125 1.328125,-0.03125 c 0.34375,0 0.6875,0.03125 1,0.03125 0.0625,0 0.1875,0 0.1875,-0.1875 0,-0.109375 -0.078125,-0.125 -0.15625,-0.125 -0.21875,-0.015625 -0.46875,-0.09375 -0.46875,-0.34375 0,-0.125 0.0625,-0.234375 0.140625,-0.375 l 0.765625,-1.265625 h 2.5 c 0.015625,0.203125 0.15625,1.5625 0.15625,1.65625 0,0.296875 -0.515625,0.328125 -0.71875,0.328125 C 4.59375,-0.3125 4.5,-0.3125 4.5,-0.109375 4.5,0 4.609375,0 4.640625,0 5.046875,0 5.46875,-0.03125 5.875,-0.03125 6.125,-0.03125 6.765625,0 7.015625,0 7.0625,0 7.1875,0 7.1875,-0.203125 7.1875,-0.3125 7.09375,-0.3125 6.953125,-0.3125 6.34375,-0.3125 6.34375,-0.375 6.3125,-0.671875 l -0.609375,-6.21875 c -0.015625,-0.203125 -0.015625,-0.25 -0.1875,-0.25 -0.15625,0 -0.203125,0.078125 -0.265625,0.171875 z M 2.984375,-2.609375 4.9375,-5.90625 5.265625,-2.609375 Z m 0,0"
               id="id-097f92be-da3c-4a72-a31c-90b4a35d7d30" />
          </g>
        </g>
        <g
           style="fill:#000000;fill-opacity:1"
           id="id-b76c6194-b07b-40d5-af4d-26d3dadf6f88">
          <g
             transform="translate(288.39,142.606)"
             id="g3447">
            <path
               style="stroke:none"
               d="m 3.53125,-1.765625 c 0,-0.125 0,-0.1875 -0.078125,-0.28125 -0.0625,-0.078125 -0.171875,-0.125 -0.265625,-0.125 -0.078125,0 -0.203125,0.046875 -0.265625,0.125 -0.078125,0.109375 -0.078125,0.1875 -0.078125,0.34375 v 0.65625 c 0,0.140625 0,0.28125 -0.265625,0.40625 -0.21875,0.09375 -0.46875,0.09375 -0.546875,0.09375 -0.203125,0 -0.40625,-0.03125 -0.5625,-0.109375 -0.25,-0.125 -0.25,-0.25 -0.25,-0.390625 v -3.65625 c 0,-0.140625 0,-0.28125 0.265625,-0.390625 0.234375,-0.109375 0.46875,-0.109375 0.546875,-0.109375 0.203125,0 0.421875,0.046875 0.5625,0.109375 0.25,0.125 0.25,0.25 0.25,0.390625 v 0.65625 c 0,0.15625 0,0.234375 0.0625,0.328125 0.09375,0.125 0.234375,0.140625 0.28125,0.140625 0.046875,0 0.171875,-0.015625 0.25,-0.109375 0.09375,-0.09375 0.09375,-0.1875 0.09375,-0.296875 V -4.75 c 0,-0.84375 -0.859375,-1.140625 -1.5,-1.140625 -0.625,0 -1.484375,0.28125 -1.484375,1.140625 V -1 c 0,0.84375 0.84375,1.140625 1.484375,1.140625 0.640625,0 1.5,-0.28125 1.5,-1.140625 z m 0,0"
               id="id-24af4fd5-2a6f-4013-814c-d7be53583a80" />
          </g>
        </g>
        <g
           style="fill:#000000;fill-opacity:1"
           id="id-f5d279e3-e6a2-4437-bff2-2c183469dbc0">
          <g
             transform="translate(295.737,146.72)"
             id="g3451">
            <path
               style="stroke:none"
               d="m 6.84375,-3.265625 c 0.15625,0 0.34375,0 0.34375,-0.1875 C 7.1875,-3.65625 7,-3.65625 6.859375,-3.65625 h -5.96875 c -0.140625,0 -0.328125,0 -0.328125,0.203125 0,0.1875 0.1875,0.1875 0.328125,0.1875 z m 0.015625,1.9375 c 0.140625,0 0.328125,0 0.328125,-0.203125 0,-0.1875 -0.1875,-0.1875 -0.34375,-0.1875 H 0.890625 c -0.140625,0 -0.328125,0 -0.328125,0.1875 0,0.203125 0.1875,0.203125 0.328125,0.203125 z m 0,0"
               id="id-094b17fc-140f-41d1-ba58-c301920f2cc9" />
          </g>
        </g>
        <g
           style="fill:#000000;fill-opacity:1"
           id="id-4b2debb2-70fa-4489-aa4d-ff6e3d834baf">
          <g
             transform="translate(306.246,146.72)"
             id="g3455">
            <path
               style="stroke:none"
               d="M 6.75,-1.609375 H 6.5 c -0.046875,0.25 -0.09375,0.484375 -0.1875,0.71875 -0.046875,0.15625 -0.078125,0.25 -0.65625,0.25 H 4.859375 C 5,-1.203125 5.296875,-1.6875 5.75,-2.34375 c 0.46875,-0.703125 0.875,-1.390625 0.875,-2.1875 0,-1.375 -1.34375,-2.5 -3.03125,-2.5 -1.703125,0 -3.03125,1.140625 -3.03125,2.5 0,0.796875 0.40625,1.484375 0.875,2.1875 0.4375,0.65625 0.75,1.140625 0.890625,1.703125 H 1.53125 C 0.953125,-0.640625 0.921875,-0.734375 0.875,-0.875 0.78125,-1.109375 0.734375,-1.359375 0.6875,-1.609375 h -0.25 L 0.765625,0 h 1.59375 c 0.21875,0 0.25,0 0.25,-0.203125 0,-0.703125 -0.3125,-1.578125 -0.53125,-2.21875 -0.21875,-0.578125 -0.5,-1.359375 -0.5,-2.109375 0,-1.59375 1.109375,-2.28125 2.015625,-2.28125 0.953125,0 2.015625,0.71875 2.015625,2.28125 0,0.75 -0.28125,1.5 -0.5625,2.3125 -0.15625,0.421875 -0.46875,1.328125 -0.46875,2.015625 C 4.578125,0 4.609375,0 4.828125,0 h 1.59375 z m 0,0"
               id="id-ef2b6096-3804-41af-bf64-d80609ed601c" />
          </g>
        </g>
        <g
           style="fill:#000000;fill-opacity:1"
           id="id-9e5e7823-5cd5-4792-a67a-f850b8f722f9">
          <g
             transform="translate(315.663,146.72)"
             id="g3459">
            <path
               style="stroke:none"
               d="m 4,2.25 c 0.046875,0.140625 0.09375,0.25 0.234375,0.25 0.109375,0 0.1875,-0.09375 0.1875,-0.203125 0,-0.03125 0,-0.046875 -0.046875,-0.15625 l -3.40625,-9.375 c -0.0625,-0.171875 -0.09375,-0.25 -0.21875,-0.25 -0.109375,0 -0.203125,0.09375 -0.203125,0.203125 0,0.03125 0,0.046875 0.046875,0.15625 z m 0,0"
               id="id-20d236e5-35b6-45ed-921e-40b7d4801ab6" />
          </g>
        </g>
        <g
           style="fill:#000000;fill-opacity:1"
           id="id-5558e699-bc84-4123-a37a-c901bc4b6e1d">
          <g
             transform="translate(322.858,146.72)"
             id="g3463">
            <path
               style="stroke:none"
               d="M 1.78125,-1.140625 C 1.390625,-0.484375 1,-0.34375 0.5625,-0.3125 0.4375,-0.296875 0.34375,-0.296875 0.34375,-0.109375 0.34375,-0.046875 0.40625,0 0.484375,0 0.75,0 1.0625,-0.03125 1.328125,-0.03125 c 0.34375,0 0.6875,0.03125 1,0.03125 0.0625,0 0.1875,0 0.1875,-0.1875 0,-0.109375 -0.078125,-0.125 -0.15625,-0.125 -0.21875,-0.015625 -0.46875,-0.09375 -0.46875,-0.34375 0,-0.125 0.0625,-0.234375 0.140625,-0.375 l 0.765625,-1.265625 h 2.5 c 0.015625,0.203125 0.15625,1.5625 0.15625,1.65625 0,0.296875 -0.515625,0.328125 -0.71875,0.328125 C 4.59375,-0.3125 4.5,-0.3125 4.5,-0.109375 4.5,0 4.609375,0 4.640625,0 5.046875,0 5.46875,-0.03125 5.875,-0.03125 6.125,-0.03125 6.765625,0 7.015625,0 7.0625,0 7.1875,0 7.1875,-0.203125 7.1875,-0.3125 7.09375,-0.3125 6.953125,-0.3125 6.34375,-0.3125 6.34375,-0.375 6.3125,-0.671875 l -0.609375,-6.21875 c -0.015625,-0.203125 -0.015625,-0.25 -0.1875,-0.25 -0.15625,0 -0.203125,0.078125 -0.265625,0.171875 z M 2.984375,-2.609375 4.9375,-5.90625 5.265625,-2.609375 Z m 0,0"
               id="id-e188b20b-167b-4dff-a817-57798671ed4a" />
          </g>
        </g>
      </g>
    </g>
    <g
       transform="matrix(0.705556 0 0 0.705556 54.9961 50.4548)"
       ns1:version="1.0.1"
       ns1:texconverter="xelatex"
       ns1:pdfconverter="inkscape"
       ns1:text="$$\nA^\\complement \\cap B = B \\setminus A\n$$"
       ns1:preamble="/home/reto/.config/inkscape/extensions/textext/packages_additional.tex"
       ns1:scale="2.0"
       ns1:alignment="middle center"
       ns1:jacobian_sqrt="0.705556"
       id="g3763">
      <defs
         id="id-31f8beab-84b2-475d-b416-fb4b9a979443">
        <g
           id="id-eebc8b71-7e08-4dcc-b727-cb006c4a5f55">
          <symbol
             overflow="visible"
             id="id-a732fa97-a4f2-4d0b-869a-02d24c9383cd">
            <path
               style="stroke:none"
               d=""
               id="id-158536bc-1c72-4c1c-ac2f-c98708b1db03" />
          </symbol>
          <symbol
             overflow="visible"
             id="id-57c24c5c-7fb1-456a-980c-fef52bc242f4">
            <path
               style="stroke:none"
               d="M 1.78125,-1.140625 C 1.390625,-0.484375 1,-0.34375 0.5625,-0.3125 0.4375,-0.296875 0.34375,-0.296875 0.34375,-0.109375 0.34375,-0.046875 0.40625,0 0.484375,0 0.75,0 1.0625,-0.03125 1.328125,-0.03125 c 0.34375,0 0.6875,0.03125 1,0.03125 0.0625,0 0.1875,0 0.1875,-0.1875 0,-0.109375 -0.078125,-0.125 -0.15625,-0.125 -0.21875,-0.015625 -0.46875,-0.09375 -0.46875,-0.34375 0,-0.125 0.0625,-0.234375 0.140625,-0.375 l 0.765625,-1.265625 h 2.5 c 0.015625,0.203125 0.15625,1.5625 0.15625,1.65625 0,0.296875 -0.515625,0.328125 -0.71875,0.328125 C 4.59375,-0.3125 4.5,-0.3125 4.5,-0.109375 4.5,0 4.609375,0 4.640625,0 5.046875,0 5.46875,-0.03125 5.875,-0.03125 6.125,-0.03125 6.765625,0 7.015625,0 7.0625,0 7.1875,0 7.1875,-0.203125 7.1875,-0.3125 7.09375,-0.3125 6.953125,-0.3125 6.34375,-0.3125 6.34375,-0.375 6.3125,-0.671875 l -0.609375,-6.21875 c -0.015625,-0.203125 -0.015625,-0.25 -0.1875,-0.25 -0.15625,0 -0.203125,0.078125 -0.265625,0.171875 z M 2.984375,-2.609375 4.9375,-5.90625 5.265625,-2.609375 Z m 0,0"
               id="id-5615648a-f99b-4de1-8e2d-c1f76de511d5" />
          </symbol>
          <symbol
             overflow="visible"
             id="id-eaef9b4d-674a-49a0-bbc2-0427f47e80af">
            <path
               style="stroke:none"
               d="M 1.59375,-0.78125 C 1.5,-0.390625 1.46875,-0.3125 0.6875,-0.3125 c -0.171875,0 -0.265625,0 -0.265625,0.203125 C 0.421875,0 0.515625,0 0.6875,0 H 4.25 C 5.828125,0 7,-1.171875 7,-2.15625 7,-2.875 6.421875,-3.453125 5.453125,-3.5625 6.484375,-3.75 7.53125,-4.484375 7.53125,-5.4375 c 0,-0.734375 -0.65625,-1.375 -1.84375,-1.375 H 2.328125 c -0.1875,0 -0.28125,0 -0.28125,0.203125 0,0.109375 0.09375,0.109375 0.28125,0.109375 0.015625,0 0.203125,0 0.375,0.015625 0.171875,0.03125 0.265625,0.03125 0.265625,0.171875 0,0.03125 -0.015625,0.0625 -0.03125,0.1875 z m 1.5,-2.875 0.625,-2.46875 C 3.8125,-6.46875 3.828125,-6.5 4.25,-6.5 h 1.296875 c 0.875,0 1.078125,0.59375 1.078125,1.03125 0,0.875 -0.859375,1.8125 -2.0625,1.8125 z m -0.4375,3.34375 c -0.140625,0 -0.15625,0 -0.21875,0 -0.109375,-0.015625 -0.140625,-0.03125 -0.140625,-0.109375 0,-0.03125 0,-0.046875 0.0625,-0.21875 l 0.6875,-2.78125 h 1.875 c 0.953125,0 1.15625,0.734375 1.15625,1.15625 C 6.078125,-1.28125 5.1875,-0.3125 4,-0.3125 Z m 0,0"
               id="id-67e80cdf-a192-4256-8ca5-7d7c7fc25e94" />
          </symbol>
          <symbol
             overflow="visible"
             id="id-703ab1d3-f54a-441c-8a3c-b951fbfe17f6">
            <path
               style="stroke:none"
               d=""
               id="id-c5b402ee-70bf-418c-8a87-b6e06f18f729" />
          </symbol>
          <symbol
             overflow="visible"
             id="id-b1753046-cf72-419e-8ed1-93c62c31c358">
            <path
               style="stroke:none"
               d="m 3.53125,-1.765625 c 0,-0.125 0,-0.1875 -0.078125,-0.28125 -0.0625,-0.078125 -0.171875,-0.125 -0.265625,-0.125 -0.078125,0 -0.203125,0.046875 -0.265625,0.125 -0.078125,0.109375 -0.078125,0.1875 -0.078125,0.34375 v 0.65625 c 0,0.140625 0,0.28125 -0.265625,0.40625 -0.21875,0.09375 -0.46875,0.09375 -0.546875,0.09375 -0.203125,0 -0.40625,-0.03125 -0.5625,-0.109375 -0.25,-0.125 -0.25,-0.25 -0.25,-0.390625 v -3.65625 c 0,-0.140625 0,-0.28125 0.265625,-0.390625 0.234375,-0.109375 0.46875,-0.109375 0.546875,-0.109375 0.203125,0 0.421875,0.046875 0.5625,0.109375 0.25,0.125 0.25,0.25 0.25,0.390625 v 0.65625 c 0,0.15625 0,0.234375 0.0625,0.328125 0.09375,0.125 0.234375,0.140625 0.28125,0.140625 0.046875,0 0.171875,-0.015625 0.25,-0.109375 0.09375,-0.09375 0.09375,-0.1875 0.09375,-0.296875 V -4.75 c 0,-0.84375 -0.859375,-1.140625 -1.5,-1.140625 -0.625,0 -1.484375,0.28125 -1.484375,1.140625 V -1 c 0,0.84375 0.84375,1.140625 1.484375,1.140625 0.640625,0 1.5,-0.28125 1.5,-1.140625 z m 0,0"
               id="id-aac61f97-a85c-4c72-9d56-6f5eb7f0109c" />
          </symbol>
          <symbol
             overflow="visible"
             id="id-a5e061b8-3f19-43df-b0f6-f3bc6252a534">
            <path
               style="stroke:none"
               d=""
               id="id-089e34e2-52f5-4dd3-9881-f73032d01fe2" />
          </symbol>
          <symbol
             overflow="visible"
             id="id-e9e9907b-a783-440d-a704-681d2f46227b">
            <path
               style="stroke:none"
               d="m 6.09375,-3.78125 c 0,-1.515625 -1.53125,-2.1875 -2.78125,-2.1875 -1.28125,0 -2.765625,0.703125 -2.765625,2.171875 v 3.65625 c 0,0.1875 0,0.359375 0.203125,0.359375 0.203125,0 0.203125,-0.171875 0.203125,-0.359375 V -3.75 c 0,-1.5 1.625,-1.8125 2.359375,-1.8125 0.453125,0 1.078125,0.09375 1.609375,0.421875 C 5.6875,-4.640625 5.6875,-4 5.6875,-3.734375 v 3.59375 c 0,0.1875 0,0.359375 0.203125,0.359375 0.203125,0 0.203125,-0.171875 0.203125,-0.359375 z m 0,0"
               id="id-9f3d1563-01dc-4a31-8b09-bad855e57559" />
          </symbol>
          <symbol
             overflow="visible"
             id="id-5794eda2-e955-42ae-887e-f211317b9fdb">
            <path
               style="stroke:none"
               d="m 4,2.25 c 0.046875,0.140625 0.09375,0.25 0.234375,0.25 0.109375,0 0.1875,-0.09375 0.1875,-0.203125 0,-0.03125 0,-0.046875 -0.046875,-0.15625 l -3.40625,-9.375 c -0.0625,-0.171875 -0.09375,-0.25 -0.21875,-0.25 -0.109375,0 -0.203125,0.09375 -0.203125,0.203125 0,0.03125 0,0.046875 0.046875,0.15625 z m 0,0"
               id="id-2107e85e-70b8-4d8e-bf2c-563239657254" />
          </symbol>
          <symbol
             overflow="visible"
             id="id-0f8bd65f-f0b9-4e5d-9267-17ad52df3264">
            <path
               style="stroke:none"
               d=""
               id="id-c73a722f-1eba-4a2e-bb27-f8ad9ec776ab" />
          </symbol>
          <symbol
             overflow="visible"
             id="id-35ff6210-94d8-4b7b-8c60-83ef62c14879">
            <path
               style="stroke:none"
               d="m 6.84375,-3.265625 c 0.15625,0 0.34375,0 0.34375,-0.1875 C 7.1875,-3.65625 7,-3.65625 6.859375,-3.65625 h -5.96875 c -0.140625,0 -0.328125,0 -0.328125,0.203125 0,0.1875 0.1875,0.1875 0.328125,0.1875 z m 0.015625,1.9375 c 0.140625,0 0.328125,0 0.328125,-0.203125 0,-0.1875 -0.1875,-0.1875 -0.34375,-0.1875 H 0.890625 c -0.140625,0 -0.328125,0 -0.328125,0.1875 0,0.203125 0.1875,0.203125 0.328125,0.203125 z m 0,0"
               id="id-f20342b0-5e8f-4760-a3f5-2773cc494a7a" />
          </symbol>
        </g>
      </defs>
      <g
         id="id-cb0a9578-20df-40a0-aa9b-5f010979d751"
         transform="translate(-271.268, -136.715)">
        <g
           style="fill:#000000;fill-opacity:1"
           id="id-b651bf6f-cc5a-4c8f-a2b5-266d1b6614a1">
          <g
             transform="translate(270.924, 146.72)"
             id="g3731">
            <path
               style="stroke:none"
               d="M 1.78125,-1.140625 C 1.390625,-0.484375 1,-0.34375 0.5625,-0.3125 0.4375,-0.296875 0.34375,-0.296875 0.34375,-0.109375 0.34375,-0.046875 0.40625,0 0.484375,0 0.75,0 1.0625,-0.03125 1.328125,-0.03125 c 0.34375,0 0.6875,0.03125 1,0.03125 0.0625,0 0.1875,0 0.1875,-0.1875 0,-0.109375 -0.078125,-0.125 -0.15625,-0.125 -0.21875,-0.015625 -0.46875,-0.09375 -0.46875,-0.34375 0,-0.125 0.0625,-0.234375 0.140625,-0.375 l 0.765625,-1.265625 h 2.5 c 0.015625,0.203125 0.15625,1.5625 0.15625,1.65625 0,0.296875 -0.515625,0.328125 -0.71875,0.328125 C 4.59375,-0.3125 4.5,-0.3125 4.5,-0.109375 4.5,0 4.609375,0 4.640625,0 5.046875,0 5.46875,-0.03125 5.875,-0.03125 6.125,-0.03125 6.765625,0 7.015625,0 7.0625,0 7.1875,0 7.1875,-0.203125 7.1875,-0.3125 7.09375,-0.3125 6.953125,-0.3125 6.34375,-0.3125 6.34375,-0.375 6.3125,-0.671875 l -0.609375,-6.21875 c -0.015625,-0.203125 -0.015625,-0.25 -0.1875,-0.25 -0.15625,0 -0.203125,0.078125 -0.265625,0.171875 z M 2.984375,-2.609375 4.9375,-5.90625 5.265625,-2.609375 Z m 0,0"
               id="id-f4c50cf2-3419-431b-b60b-883cb59e86d4" />
          </g>
        </g>
        <g
           style="fill:#000000;fill-opacity:1"
           id="id-30373d05-f0a7-4310-a965-753c7ff7763e">
          <g
             transform="translate(278.396, 142.606)"
             id="g3735">
            <path
               style="stroke:none"
               d="m 3.53125,-1.765625 c 0,-0.125 0,-0.1875 -0.078125,-0.28125 -0.0625,-0.078125 -0.171875,-0.125 -0.265625,-0.125 -0.078125,0 -0.203125,0.046875 -0.265625,0.125 -0.078125,0.109375 -0.078125,0.1875 -0.078125,0.34375 v 0.65625 c 0,0.140625 0,0.28125 -0.265625,0.40625 -0.21875,0.09375 -0.46875,0.09375 -0.546875,0.09375 -0.203125,0 -0.40625,-0.03125 -0.5625,-0.109375 -0.25,-0.125 -0.25,-0.25 -0.25,-0.390625 v -3.65625 c 0,-0.140625 0,-0.28125 0.265625,-0.390625 0.234375,-0.109375 0.46875,-0.109375 0.546875,-0.109375 0.203125,0 0.421875,0.046875 0.5625,0.109375 0.25,0.125 0.25,0.25 0.25,0.390625 v 0.65625 c 0,0.15625 0,0.234375 0.0625,0.328125 0.09375,0.125 0.234375,0.140625 0.28125,0.140625 0.046875,0 0.171875,-0.015625 0.25,-0.109375 0.09375,-0.09375 0.09375,-0.1875 0.09375,-0.296875 V -4.75 c 0,-0.84375 -0.859375,-1.140625 -1.5,-1.140625 -0.625,0 -1.484375,0.28125 -1.484375,1.140625 V -1 c 0,0.84375 0.84375,1.140625 1.484375,1.140625 0.640625,0 1.5,-0.28125 1.5,-1.140625 z m 0,0"
               id="id-877b6c43-c022-462c-9fa5-180a47429d56" />
          </g>
        </g>
        <g
           style="fill:#000000;fill-opacity:1"
           id="id-72b7b2bb-f812-46b0-8828-f083b1bd965e">
          <g
             transform="translate(285.19, 146.72)"
             id="g3739">
            <path
               style="stroke:none"
               d="m 6.09375,-3.78125 c 0,-1.515625 -1.53125,-2.1875 -2.78125,-2.1875 -1.28125,0 -2.765625,0.703125 -2.765625,2.171875 v 3.65625 c 0,0.1875 0,0.359375 0.203125,0.359375 0.203125,0 0.203125,-0.171875 0.203125,-0.359375 V -3.75 c 0,-1.5 1.625,-1.8125 2.359375,-1.8125 0.453125,0 1.078125,0.09375 1.609375,0.421875 C 5.6875,-4.640625 5.6875,-4 5.6875,-3.734375 v 3.59375 c 0,0.1875 0,0.359375 0.203125,0.359375 0.203125,0 0.203125,-0.171875 0.203125,-0.359375 z m 0,0"
               id="id-dd87d050-def0-4cfd-82df-a478d0882e7c" />
          </g>
        </g>
        <g
           style="fill:#000000;fill-opacity:1"
           id="id-c73549db-baf6-4074-8650-99e9779e64cc">
          <g
             transform="translate(294.046, 146.72)"
             id="g3743">
            <path
               style="stroke:none"
               d="M 1.59375,-0.78125 C 1.5,-0.390625 1.46875,-0.3125 0.6875,-0.3125 c -0.171875,0 -0.265625,0 -0.265625,0.203125 C 0.421875,0 0.515625,0 0.6875,0 H 4.25 C 5.828125,0 7,-1.171875 7,-2.15625 7,-2.875 6.421875,-3.453125 5.453125,-3.5625 6.484375,-3.75 7.53125,-4.484375 7.53125,-5.4375 c 0,-0.734375 -0.65625,-1.375 -1.84375,-1.375 H 2.328125 c -0.1875,0 -0.28125,0 -0.28125,0.203125 0,0.109375 0.09375,0.109375 0.28125,0.109375 0.015625,0 0.203125,0 0.375,0.015625 0.171875,0.03125 0.265625,0.03125 0.265625,0.171875 0,0.03125 -0.015625,0.0625 -0.03125,0.1875 z m 1.5,-2.875 0.625,-2.46875 C 3.8125,-6.46875 3.828125,-6.5 4.25,-6.5 h 1.296875 c 0.875,0 1.078125,0.59375 1.078125,1.03125 0,0.875 -0.859375,1.8125 -2.0625,1.8125 z m -0.4375,3.34375 c -0.140625,0 -0.15625,0 -0.21875,0 -0.109375,-0.015625 -0.140625,-0.03125 -0.140625,-0.109375 0,-0.03125 0,-0.046875 0.0625,-0.21875 l 0.6875,-2.78125 h 1.875 c 0.953125,0 1.15625,0.734375 1.15625,1.15625 C 6.078125,-1.28125 5.1875,-0.3125 4,-0.3125 Z m 0,0"
               id="id-03dc8f1d-23c4-43dd-aeb1-ebe81aef79b8" />
          </g>
        </g>
        <g
           style="fill:#000000;fill-opacity:1"
           id="id-8b26da89-d829-4822-bfcb-805787c17f10">
          <g
             transform="translate(304.87, 146.72)"
             id="g3747">
            <path
               style="stroke:none"
               d="m 6.84375,-3.265625 c 0.15625,0 0.34375,0 0.34375,-0.1875 C 7.1875,-3.65625 7,-3.65625 6.859375,-3.65625 h -5.96875 c -0.140625,0 -0.328125,0 -0.328125,0.203125 0,0.1875 0.1875,0.1875 0.328125,0.1875 z m 0.015625,1.9375 c 0.140625,0 0.328125,0 0.328125,-0.203125 0,-0.1875 -0.1875,-0.1875 -0.34375,-0.1875 H 0.890625 c -0.140625,0 -0.328125,0 -0.328125,0.1875 0,0.203125 0.1875,0.203125 0.328125,0.203125 z m 0,0"
               id="id-3057e0d7-c830-4ac0-8dcf-121057d8188e" />
          </g>
        </g>
        <g
           style="fill:#000000;fill-opacity:1"
           id="id-ecf3d014-4a3b-4c30-b133-5f5893fc758b">
          <g
             transform="translate(315.386, 146.72)"
             id="g3751">
            <path
               style="stroke:none"
               d="M 1.59375,-0.78125 C 1.5,-0.390625 1.46875,-0.3125 0.6875,-0.3125 c -0.171875,0 -0.265625,0 -0.265625,0.203125 C 0.421875,0 0.515625,0 0.6875,0 H 4.25 C 5.828125,0 7,-1.171875 7,-2.15625 7,-2.875 6.421875,-3.453125 5.453125,-3.5625 6.484375,-3.75 7.53125,-4.484375 7.53125,-5.4375 c 0,-0.734375 -0.65625,-1.375 -1.84375,-1.375 H 2.328125 c -0.1875,0 -0.28125,0 -0.28125,0.203125 0,0.109375 0.09375,0.109375 0.28125,0.109375 0.015625,0 0.203125,0 0.375,0.015625 0.171875,0.03125 0.265625,0.03125 0.265625,0.171875 0,0.03125 -0.015625,0.0625 -0.03125,0.1875 z m 1.5,-2.875 0.625,-2.46875 C 3.8125,-6.46875 3.828125,-6.5 4.25,-6.5 h 1.296875 c 0.875,0 1.078125,0.59375 1.078125,1.03125 0,0.875 -0.859375,1.8125 -2.0625,1.8125 z m -0.4375,3.34375 c -0.140625,0 -0.15625,0 -0.21875,0 -0.109375,-0.015625 -0.140625,-0.03125 -0.140625,-0.109375 0,-0.03125 0,-0.046875 0.0625,-0.21875 l 0.6875,-2.78125 h 1.875 c 0.953125,0 1.15625,0.734375 1.15625,1.15625 C 6.078125,-1.28125 5.1875,-0.3125 4,-0.3125 Z m 0,0"
               id="id-4f72e643-f4a9-4c68-a3ef-76834c4268fd" />
          </g>
        </g>
        <g
           style="fill:#000000;fill-opacity:1"
           id="id-47266d54-0194-4048-a280-686ef8071737">
          <g
             transform="translate(325.656, 146.72)"
             id="g3755">
            <path
               style="stroke:none"
               d="m 4,2.25 c 0.046875,0.140625 0.09375,0.25 0.234375,0.25 0.109375,0 0.1875,-0.09375 0.1875,-0.203125 0,-0.03125 0,-0.046875 -0.046875,-0.15625 l -3.40625,-9.375 c -0.0625,-0.171875 -0.09375,-0.25 -0.21875,-0.25 -0.109375,0 -0.203125,0.09375 -0.203125,0.203125 0,0.03125 0,0.046875 0.046875,0.15625 z m 0,0"
               id="id-4a3d9a17-ec65-48c6-825c-e14461340d54" />
          </g>
        </g>
        <g
           style="fill:#000000;fill-opacity:1"
           id="id-c22b4a9b-44fb-4e61-8c0a-cf7bba3333e1">
          <g
             transform="translate(332.852, 146.72)"
             id="g3759">
            <path
               style="stroke:none"
               d="M 1.78125,-1.140625 C 1.390625,-0.484375 1,-0.34375 0.5625,-0.3125 0.4375,-0.296875 0.34375,-0.296875 0.34375,-0.109375 0.34375,-0.046875 0.40625,0 0.484375,0 0.75,0 1.0625,-0.03125 1.328125,-0.03125 c 0.34375,0 0.6875,0.03125 1,0.03125 0.0625,0 0.1875,0 0.1875,-0.1875 0,-0.109375 -0.078125,-0.125 -0.15625,-0.125 -0.21875,-0.015625 -0.46875,-0.09375 -0.46875,-0.34375 0,-0.125 0.0625,-0.234375 0.140625,-0.375 l 0.765625,-1.265625 h 2.5 c 0.015625,0.203125 0.15625,1.5625 0.15625,1.65625 0,0.296875 -0.515625,0.328125 -0.71875,0.328125 C 4.59375,-0.3125 4.5,-0.3125 4.5,-0.109375 4.5,0 4.609375,0 4.640625,0 5.046875,0 5.46875,-0.03125 5.875,-0.03125 6.125,-0.03125 6.765625,0 7.015625,0 7.0625,0 7.1875,0 7.1875,-0.203125 7.1875,-0.3125 7.09375,-0.3125 6.953125,-0.3125 6.34375,-0.3125 6.34375,-0.375 6.3125,-0.671875 l -0.609375,-6.21875 c -0.015625,-0.203125 -0.015625,-0.25 -0.1875,-0.25 -0.15625,0 -0.203125,0.078125 -0.265625,0.171875 z M 2.984375,-2.609375 4.9375,-5.90625 5.265625,-2.609375 Z m 0,0"
               id="id-0aa92eb2-eb8e-42af-b34b-11870eef4533" />
          </g>
        </g>
      </g>
    </g>
  </g>
</svg>
