<?xml version="1.0" encoding="UTF-8" standalone="no"?>
<svg
   xmlns:dc="http://purl.org/dc/elements/1.1/"
   xmlns:cc="http://creativecommons.org/ns#"
   xmlns:rdf="http://www.w3.org/1999/02/22-rdf-syntax-ns#"
   xmlns:svg="http://www.w3.org/2000/svg"
   xmlns="http://www.w3.org/2000/svg"
   xmlns:xlink="http://www.w3.org/1999/xlink"
   xmlns:sodipodi="http://sodipodi.sourceforge.net/DTD/sodipodi-0.dtd"
   xmlns:inkscape="http://www.inkscape.org/namespaces/inkscape"
   id="svg18"
   version="1.1"
   viewBox="0 0 821.09403 862.99009"
   height="862.99005"
   width="821.09399"
   preserveAspectRatio="xMidYMid"
   sodipodi:docname="Cover2.svg"
   inkscape:version="1.0 (4035a4fb49, 2020-05-01)"
   inkscape:export-filename="C:\Users\858782\OneDrive - DSM\Documents\07_R\Stat Reference Book\Stat_Ref_Book\figures\01_cover\Cover2.png"
   inkscape:export-xdpi="90.439049"
   inkscape:export-ydpi="90.439049">
  <sodipodi:namedview
     pagecolor="#ffffff"
     bordercolor="#666666"
     borderopacity="1"
     objecttolerance="10"
     gridtolerance="10"
     guidetolerance="10"
     inkscape:pageopacity="0"
     inkscape:pageshadow="2"
     inkscape:window-width="1362"
     inkscape:window-height="1040"
     id="namedview72"
     showgrid="false"
     inkscape:snap-grids="true"
     inkscape:zoom="0.45254834"
     inkscape:cx="389.75722"
     inkscape:cy="479.11877"
     inkscape:window-x="156"
     inkscape:window-y="0"
     inkscape:window-maximized="0"
     inkscape:current-layer="svg18"
     showguides="false"
     inkscape:document-rotation="0">
    <inkscape:grid
       type="xygrid"
       id="grid897" />
  </sodipodi:namedview>
  <metadata
     id="metadata22">
    <rdf:RDF>
      <cc:Work
         rdf:about="">
        <dc:format>image/svg+xml</dc:format>
        <dc:type
           rdf:resource="http://purl.org/dc/dcmitype/StillImage" />
        <dc:title />
      </cc:Work>
    </rdf:RDF>
  </metadata>
  <defs
     id="defs12">
    <linearGradient
       spreadMethod="pad"
       gradientUnits="objectBoundingBox"
       y2="1"
       y1="0"
       x2="1"
       x1="0"
       id="linearGradient4695">
      <stop
         id="stop4691"
         stop-opacity="1"
         stop-color="rgb(39,109,195)"
         offset="0"
         style="stop-color:#e5e105;stop-opacity:1" />
      <stop
         id="stop4693"
         stop-opacity="1"
         stop-color="rgb(22,92,170)"
         offset="1"
         style="stop-color:#000000;stop-opacity:1" />
    </linearGradient>
    <linearGradient
       spreadMethod="pad"
       gradientUnits="objectBoundingBox"
       y2="1"
       y1="0"
       x2="1"
       x1="0"
       id="linearGradient4677">
      <stop
         id="stop4673"
         stop-opacity="1"
         stop-color="rgb(39,109,195)"
         offset="0"
         style="stop-color:#8a8703;stop-opacity:1" />
      <stop
         id="stop4675"
         stop-opacity="1"
         stop-color="rgb(22,92,170)"
         offset="1"
         style="stop-color:#4a6a0e;stop-opacity:1" />
    </linearGradient>
    <linearGradient
       spreadMethod="pad"
       gradientUnits="objectBoundingBox"
       y2="1"
       y1="0"
       x2="1"
       x1="0"
       id="linearGradient4658">
      <stop
         id="stop4668"
         stop-opacity="1"
         stop-color="rgb(39,109,195)"
         offset="0"
         style="stop-color:#aac327;stop-opacity:1" />
      <stop
         id="stop4670"
         stop-opacity="1"
         stop-color="rgb(22,92,170)"
         offset="1" />
    </linearGradient>
    <linearGradient
       id="linearGradient4664"
       x1="0"
       x2="1"
       y1="0"
       y2="1"
       gradientUnits="objectBoundingBox"
       spreadMethod="pad">
      <stop
         style="stop-color:#000000;stop-opacity:0"
         offset="0"
         stop-color="rgb(39,109,195)"
         stop-opacity="1"
         id="stop4660" />
      <stop
         offset="1"
         stop-color="rgb(22,92,170)"
         stop-opacity="1"
         id="stop4662" />
    </linearGradient>
    <linearGradient
       id="linearGradient4658-6"
       x1="0"
       x2="1"
       y1="0"
       y2="1"
       gradientUnits="objectBoundingBox"
       spreadMethod="pad">
      <stop
         style="stop-color:#aac327;stop-opacity:1"
         offset="0"
         stop-color="rgb(39,109,195)"
         stop-opacity="1"
         id="stop4654" />
      <stop
         offset="1"
         stop-color="rgb(22,92,170)"
         stop-opacity="1"
         id="stop4656" />
    </linearGradient>
    <linearGradient
       id="linearGradient4652"
       x1="0"
       x2="1"
       y1="0"
       y2="1"
       gradientUnits="objectBoundingBox"
       spreadMethod="pad">
      <stop
         style="stop-color:#7ac327;stop-opacity:1"
         offset="0"
         stop-color="rgb(39,109,195)"
         stop-opacity="1"
         id="stop4648" />
      <stop
         offset="1"
         stop-color="rgb(22,92,170)"
         stop-opacity="1"
         id="stop4650" />
    </linearGradient>
    <linearGradient
       id="linearGradient4646"
       x1="0"
       x2="1"
       y1="0"
       y2="1"
       gradientUnits="objectBoundingBox"
       spreadMethod="pad">
      <stop
         style="stop-color:#b3c327;stop-opacity:1"
         offset="0"
         stop-color="rgb(39,109,195)"
         stop-opacity="1"
         id="stop4642" />
      <stop
         offset="1"
         stop-color="rgb(22,92,170)"
         stop-opacity="1"
         id="stop4644" />
    </linearGradient>
    <linearGradient
       id="linearGradient4640"
       x1="0"
       x2="1"
       y1="0"
       y2="1"
       gradientUnits="objectBoundingBox"
       spreadMethod="pad">
      <stop
         style="stop-color:#90ba25;stop-opacity:1"
         offset="0"
         stop-color="rgb(39,109,195)"
         stop-opacity="1"
         id="stop4636" />
      <stop
         offset="1"
         stop-color="rgb(22,92,170)"
         stop-opacity="1"
         id="stop4638" />
    </linearGradient>
    <linearGradient
       id="linearGradient4634"
       x1="0"
       x2="1"
       y1="0"
       y2="1"
       gradientUnits="objectBoundingBox"
       spreadMethod="pad">
      <stop
         style="stop-color:#a4d52a;stop-opacity:1"
         offset="0"
         stop-color="rgb(39,109,195)"
         stop-opacity="1"
         id="stop4630" />
      <stop
         offset="1"
         stop-color="rgb(22,92,170)"
         stop-opacity="1"
         id="stop4632" />
    </linearGradient>
    <linearGradient
       id="linearGradient4628"
       x1="0"
       x2="1"
       y1="0"
       y2="1"
       gradientUnits="objectBoundingBox"
       spreadMethod="pad">
      <stop
         style="stop-color:#96c327;stop-opacity:1"
         offset="0"
         stop-color="rgb(39,109,195)"
         stop-opacity="1"
         id="stop4624" />
      <stop
         offset="1"
         stop-color="rgb(22,92,170)"
         stop-opacity="1"
         id="stop4626" />
    </linearGradient>
    <linearGradient
       id="linearGradient4622"
       x1="0"
       x2="1"
       y1="0"
       y2="1"
       gradientUnits="objectBoundingBox"
       spreadMethod="pad">
      <stop
         style="stop-color:#83c327;stop-opacity:1"
         offset="0"
         stop-color="rgb(39,109,195)"
         stop-opacity="1"
         id="stop4618" />
      <stop
         offset="1"
         stop-color="rgb(22,92,170)"
         stop-opacity="1"
         id="stop4620" />
    </linearGradient>
    <linearGradient
       id="linearGradient4616"
       x1="0"
       x2="1"
       y1="0"
       y2="1"
       gradientUnits="objectBoundingBox"
       spreadMethod="pad">
      <stop
         style="stop-color:#27c363;stop-opacity:1"
         offset="0"
         stop-color="rgb(39,109,195)"
         stop-opacity="1"
         id="stop4612" />
      <stop
         offset="1"
         stop-color="rgb(22,92,170)"
         stop-opacity="1"
         id="stop4614" />
    </linearGradient>
    <linearGradient
       id="linearGradient4610"
       x1="0"
       x2="1"
       y1="0"
       y2="1"
       gradientUnits="objectBoundingBox"
       spreadMethod="pad">
      <stop
         style="stop-color:#27b9c3;stop-opacity:1"
         offset="0"
         stop-color="rgb(39,109,195)"
         stop-opacity="1"
         id="stop4606" />
      <stop
         offset="1"
         stop-color="rgb(22,92,170)"
         stop-opacity="1"
         id="stop4608" />
    </linearGradient>
    <linearGradient
       id="linearGradient4604"
       x1="0"
       x2="1"
       y1="0"
       y2="1"
       gradientUnits="objectBoundingBox"
       spreadMethod="pad">
      <stop
         style="stop-color:#e5e105;stop-opacity:1"
         offset="0"
         stop-color="rgb(39,109,195)"
         stop-opacity="1"
         id="stop4600" />
      <stop
         style="stop-color:#4a6a0e;stop-opacity:1"
         offset="1"
         stop-color="rgb(22,92,170)"
         stop-opacity="1"
         id="stop4602" />
    </linearGradient>
    <linearGradient
       id="linearGradient4598"
       x1="0"
       x2="1"
       y1="0"
       y2="1"
       gradientUnits="objectBoundingBox"
       spreadMethod="pad">
      <stop
         style="stop-color:#27c36d;stop-opacity:1"
         offset="0"
         stop-color="rgb(39,109,195)"
         stop-opacity="1"
         id="stop4594" />
      <stop
         offset="1"
         stop-color="rgb(22,92,170)"
         stop-opacity="1"
         id="stop4596" />
    </linearGradient>
    <linearGradient
       id="linearGradient4592"
       x1="0"
       x2="1"
       y1="0"
       y2="1"
       gradientUnits="objectBoundingBox"
       spreadMethod="pad">
      <stop
         style="stop-color:#27c33d;stop-opacity:1"
         offset="0"
         stop-color="rgb(39,109,195)"
         stop-opacity="1"
         id="stop4588" />
      <stop
         offset="1"
         stop-color="rgb(22,92,170)"
         stop-opacity="1"
         id="stop4590" />
    </linearGradient>
    <linearGradient
       gradientTransform="matrix(1.2219423,0,0,0.81836924,39.094,47)"
       spreadMethod="pad"
       gradientUnits="userSpaceOnUse"
       y2="593.78699"
       y1="3.6658268"
       x2="590.86261"
       x1="0.7414425"
       id="gradientFill-1">
      <stop
         id="stop2"
         stop-opacity="1"
         stop-color="rgb(203,206,208)"
         offset="0" />
      <stop
         id="stop4"
         stop-opacity="1"
         stop-color="rgb(132,131,139)"
         offset="1" />
    </linearGradient>
    <linearGradient
       xlink:href="#linearGradient4664"
       spreadMethod="pad"
       gradientUnits="objectBoundingBox"
       y2="1"
       y1="0"
       x2="1"
       x1="0"
       id="gradientFill-2">
      <stop
         id="stop7"
         stop-opacity="1"
         stop-color="rgb(39,109,195)"
         offset="0" />
      <stop
         id="stop9"
         stop-opacity="1"
         stop-color="rgb(22,92,170)"
         offset="1" />
    </linearGradient>
    <linearGradient
       gradientUnits="userSpaceOnUse"
       y2="256"
       x2="496"
       y1="256"
       x1="16"
       id="linearGradient4578"
       xlink:href="#linearGradient4652" />
    <linearGradient
       gradientUnits="userSpaceOnUse"
       y2="512"
       x2="496"
       y1="2.5520406"
       x1="18.725452"
       id="linearGradient4586"
       xlink:href="#linearGradient4695" />
    <linearGradient
       spreadMethod="pad"
       y2="409.83829"
       x2="616.19421"
       y1="151.4006"
       x1="301.02603"
       gradientTransform="matrix(0.9899476,0,0,1.0101545,49.094,47)"
       gradientUnits="userSpaceOnUse"
       id="linearGradient4697"
       xlink:href="#linearGradient4695" />
    <clipPath
       id="clip2">
      <path
         d="m 362,59.039062 h 1 V 214.55859 h -1 z m 0,0"
         id="path5" />
    </clipPath>
    <clipPath
       id="clip4">
      <path
         d="m 362,59.039062 h 1 V 214.55859 h -1 z m 0,0"
         id="path11" />
    </clipPath>
  </defs>
  <path
     style="fill:url(#gradientFill-1);fill-rule:evenodd"
     id="path14"
     d="M 400.547,532.937 C 201.423,532.937 40,424.828 40,291.469 40,158.109 201.423,50 400.547,50 c 199.125,0 360.547,108.109 360.547,241.469 0,133.359 -161.422,241.468 -360.547,241.468 z m 55.188,-388.531 c -151.352,0 -274.047,73.908 -274.047,165.078 0,91.17 122.695,165.078 274.047,165.078 151.351,0 263.046,-50.529 263.046,-165.078 0,-114.513 -111.695,-165.078 -263.046,-165.078 z" />
  <text
     id="text4542"
     y="680.50446"
     x="28.8375"
     style="font-style:normal;font-variant:normal;font-weight:normal;font-stretch:normal;font-size:79.2439px;line-height:1.25;font-family:'Segoe UI';-inkscape-font-specification:'Segoe UI';letter-spacing:0px;word-spacing:0px;writing-mode:lr-tb;fill:#000000;fill-opacity:1;stroke:none;stroke-width:0.849042"
     xml:space="preserve"><tspan
       style="font-size:79.2439px;stroke-width:0.849042"
       y="680.50446"
       x="28.8375"
       id="tspan4540">Stats Knowledge Base</tspan></text>
  <text
     id="text4542-4-1"
     y="762.7923"
     x="130.08311"
     style="font-style:normal;font-variant:normal;font-weight:normal;font-stretch:normal;font-size:93.3333px;line-height:1.25;font-family:'Segoe UI';-inkscape-font-specification:'Segoe UI';letter-spacing:0px;word-spacing:0px;writing-mode:lr-tb;fill:#000000;fill-opacity:1;stroke:none"
     xml:space="preserve"><tspan
       style="font-size:29.3333px"
       y="762.7923"
       x="130.08311"
       id="tspan4540-4-4">A Collection of Useful Statistical Knowledge</tspan></text>
  <g
     id="g1097"
     transform="matrix(1.1180775,0,0,1.2544537,994.6722,48.709831)">
    <path
       style="fill:none;stroke:#000000;stroke-width:1.353;stroke-linecap:round;stroke-linejoin:round;stroke-miterlimit:10;stroke-opacity:1"
       d="m -810.64626,416.69781 0.78491,-0.008 h 0.78492 l 0.78491,-0.008 h 0.78492 l 1.56982,-0.0159 h 0.78492 l 0.77853,-0.008 h 0.78491 l 2.35474,-0.0233 h 0.78492 l 1.56982,-0.0159 0.77854,-0.008 6.27931,-0.0621 0.77853,-0.008 0.78491,-0.0159 1.56983,-0.0159 0.78491,-0.0159 0.78492,-0.008 0.78491,-0.0159 0.78492,-0.008 0.77853,-0.0159 0.78491,-0.008 2.35474,-0.0466 0.78492,-0.008 1.56982,-0.0311 0.77854,-0.0159 0.78491,-0.0233 2.35474,-0.0466 0.78492,-0.0233 0.78491,-0.0159 1.56983,-0.0466 0.77853,-0.0159 2.35474,-0.0701 0.78491,-0.0311 1.56984,-0.0466 0.78491,-0.0311 0.77853,-0.0233 4.70948,-0.18666 0.78491,-0.0388 0.77855,-0.0311 3.92456,-0.19463 1.56983,-0.0934 0.78492,-0.0388 0.77853,-0.0466 0.78491,-0.0544 1.56982,-0.0934 2.35474,-0.16335 0.78492,-0.0622 0.77853,-0.0544 2.35475,-0.18666 3.13964,-0.28013 0.77855,-0.0701 2.35473,-0.23346 2.35475,-0.25678 0.78491,-0.0934 0.78492,-0.0857 0.77853,-0.0934 3.13964,-0.40465 1.56983,-0.21788 0.78492,-0.11674 0.77853,-0.11674 0.78491,-0.11673 1.56983,-0.24902 2.35474,-0.39687 0.78491,-0.14004 0.77853,-0.14005 0.78492,-0.14781 0.78491,-0.15559 0.78492,-0.14781 0.78491,-0.15559 1.56983,-0.32684 0.78492,-0.17112 0.7849,-0.1789 0.77854,-0.17112 2.35474,-0.56028 0.78491,-0.19463 1.56983,-0.40466 0.78492,-0.21009 0.77853,-0.21789 0.78491,-0.21788 1.56983,-0.45135 2.35474,-0.7237 0.78491,-0.24901 0.77853,-0.25679 0.78491,-0.26459 1.56984,-0.5447 0.78491,-0.28015 1.56983,-0.57584 1.56982,-0.60698 0.77854,-0.31127 0.78492,-0.31905 1.56981,-0.65366 0.78492,-0.3424 1.56983,-0.70035 0.78492,-0.35796 0.77853,-0.36573 1.56983,-0.7626 0.78491,-0.38908 0.78492,-0.39687 0.7849,-0.40466 1.56983,-0.84041 0.77853,-0.42801 1.56983,-0.88711 1.56983,-0.91824 0.78492,-0.47468 0.78491,-0.48247 0.78492,-0.49024 0.7849,-0.49803 0.77854,-0.51359 0.78492,-0.51358 0.7849,-0.52917 0.78491,-0.53693 0.78492,-0.54472 0.78492,-0.56029 0.78491,-0.56805 0.78492,-0.57586 0.77853,-0.58363 0.78491,-0.59919 0.78492,-0.60695 0.78491,-0.61477 1.56982,-1.26063 1.56983,-1.30732 0.77853,-0.677 0.78491,-0.67702 0.78492,-0.69256 0.78491,-0.70037 0.78492,-0.7159 0.78492,-0.7237 0.78491,-0.73927 0.78492,-0.74704 0.7849,-0.75481 0.77854,-0.77818 0.78492,-0.77816 0.7849,-0.79374 0.78491,-0.8093 0.78492,-0.81708 0.78491,-0.82486 1.56984,-1.6964 0.77852,-0.87155 0.78492,-0.87934 0.78492,-0.88711 0.78491,-0.90268 0.78492,-0.91823 0.7849,-0.92603 0.78491,-0.94157 0.78492,-0.94938 0.77853,-0.96492 0.78491,-0.9805 0.78492,-0.98827 0.78491,-1.00384 0.78492,-1.01941 0.78492,-1.02717 0.78491,-1.04275 0.78492,-1.05052 0.7849,-1.0661 0.77854,-1.08166 0.78492,-1.08943 0.7849,-1.105 0.78491,-1.12057 0.78492,-1.12835 0.78491,-1.14391 0.78492,-1.15947 0.78492,-1.16724 0.77852,-1.18282 0.78492,-1.19839 0.78492,-1.20617 0.78491,-1.22172 0.78492,-1.22949 0.7849,-1.24507 0.78491,-1.26065 0.78492,-1.26842 0.77853,-1.28398 0.78491,-1.29174 0.78492,-1.30733 0.78491,-1.3229 0.78492,-1.33067 0.78491,-1.34623 0.78492,-1.354 0.78492,-1.36958 0.7849,-1.37737 0.77854,-1.39292 0.78492,-1.4007 0.7849,-1.41627 0.78491,-1.42406 0.78492,-1.4396 0.78491,-1.44739 0.78492,-1.46297 0.78491,-1.47074 0.77853,-1.47852 0.78492,-1.49409 0.78491,-1.50185 0.78492,-1.50966 0.78492,-1.52521 0.7849,-1.53299 0.78491,-1.54078 0.78492,-1.55634 0.77853,-1.56412 0.78491,-1.5719 0.78492,-1.57969 0.78491,-1.58745 0.78492,-1.59525 1.56983,-3.22162 0.78492,-1.62638 0.7849,-1.63415 0.77854,-1.63415 1.56981,-3.29944 0.78492,-1.6575 0.78492,-1.66528 0.78491,-1.67308 0.78492,-1.68085 0.78491,-1.68861 0.77853,-1.68864 0.78492,-1.6964 1.56983,-3.40838 1.56981,-3.42395 1.56984,-3.4395 0.77852,-1.72754 1.56984,-3.45506 2.35474,-5.20595 0.78492,-1.7431 0.78491,-1.73533 0.7849,-1.7431 0.77855,-1.73531 1.56981,-3.4862 0.78492,-1.73531 0.78492,-1.7431 2.35474,-5.20597 0.77853,-1.72752 1.56983,-3.45508 0.78492,-1.71975 2.35473,-5.13591 0.78492,-1.69642 0.77852,-1.70419 0.78492,-1.68862 1.56983,-3.36169 0.78492,-1.67307 1.56983,-3.315 0.78491,-1.64971 0.7849,-1.63417 0.77855,-1.63415 0.78491,-1.61859 0.7849,-1.61081 0.78492,-1.59525 0.78491,-1.58746 0.78492,-1.57969 0.78492,-1.56412 0.78491,-1.55633 0.77853,-1.54078 0.78492,-1.53299 0.78491,-1.51743 0.78492,-1.50187 0.78491,-1.4863 0.7849,-1.47852 0.78492,-1.46296 0.78491,-1.44739 0.77853,-1.42405 0.78492,-1.41627 0.78491,-1.40071 0.78492,-1.38514 0.78492,-1.36179 0.78491,-1.34624 0.78492,-1.33067 0.78491,-1.3151 0.7849,-1.29176 0.77855,-1.2762 0.78491,-1.26063 0.7849,-1.23729 0.78492,-1.21395 0.78491,-1.19838 0.78492,-1.17503 0.78492,-1.15948 0.78491,-1.13612 0.77853,-1.11278 0.78492,-1.08944 0.78491,-1.07387 0.78492,-1.05053 0.78491,-1.02719 0.7849,-0.99605 0.78492,-0.9805 0.78491,-0.95714 0.77853,-0.93381 0.78492,-0.91045 0.78491,-0.88712 0.78492,-0.85598 0.78492,-0.84043 0.78491,-0.80929 0.78492,-0.78595 0.78491,-0.75483 0.7849,-0.73926 0.77855,-0.70813 0.78491,-0.67701 0.7849,-0.66144 0.78492,-0.63032 0.78491,-0.59919 0.78492,-0.57584 0.78491,-0.55251 0.78492,-0.52138 0.77853,-0.49024 0.78491,-0.46689 0.78492,-0.44356 0.78492,-0.41243 0.78491,-0.38131 0.7849,-0.35796 0.78492,-0.32683 0.78491,-0.29571 0.77853,-0.27234 0.78492,-0.24125 0.78491,-0.21787 0.78492,-0.18667 0.78491,-0.15558 0.78492,-0.13228 0.78492,-0.1012 0.78491,-0.0701 0.7849,-0.0388 0.77855,-0.0159 0.78491,0.0159 0.7849,0.0388 0.78492,0.0701 0.78491,0.1012 0.78492,0.13228 0.78491,0.15558 0.78492,0.18667 0.77853,0.21787 0.78491,0.24125 0.78492,0.27234 0.78492,0.29571 0.78491,0.32683 0.7849,0.35796 0.78492,0.38131 0.78491,0.41243 0.77853,0.44356 0.78492,0.46689 0.78491,0.49024 0.78492,0.52138 0.78491,0.55251 0.78492,0.57584 0.78492,0.59919 0.78491,0.63032 0.7849,0.66144 0.77854,0.67701 0.78492,0.70813 0.7849,0.73926 0.78492,0.75483 0.78491,0.78595 0.78492,0.80929 0.78491,0.84043 0.78492,0.85598 0.77853,0.88712 0.78491,0.91045 0.78492,0.93381 0.78491,0.95714 0.78492,0.9805 0.7849,0.99605 0.78492,1.02719 0.78491,1.05053 0.77853,1.07387 0.78492,1.08944 0.78491,1.11278 0.78492,1.13612 0.78491,1.15948 0.78492,1.17503 0.78491,1.19838 0.78492,1.21395 0.7849,1.23729 0.77854,1.26063 0.78492,1.2762 0.7849,1.29176 0.78492,1.3151 0.78491,1.33067 0.78492,1.34624 0.78491,1.36179 0.78492,1.38514 0.77853,1.40071 0.78491,1.41627 0.78492,1.42405 0.78491,1.44739 0.78492,1.46296 0.7849,1.47852 0.78491,1.4863 0.78492,1.50187 0.77853,1.51743 0.78491,1.53299 0.78492,1.54078 0.78492,1.55633 0.78491,1.56412 0.78492,1.57969 0.78491,1.58746 0.78492,1.59525 0.7849,1.61081 0.77854,1.61859 1.56982,3.26832 0.78491,1.64971 1.56984,3.315 0.78491,1.67307 0.78492,1.68085 0.77853,1.68084 0.78491,1.68862 0.78492,1.70419 0.78491,1.69642 2.35473,5.13591 0.78492,1.71975 0.77853,1.72754 1.56983,3.45506 2.35475,5.20597 0.78491,1.7431 0.78492,1.73531 0.7849,1.7431 0.77854,1.7431 0.78492,1.73531 0.7849,1.7431 0.78491,1.73533 0.78492,1.7431 2.35475,5.20595 0.77852,1.72752 1.56984,3.45508 1.56983,3.4395 1.56981,3.42395 0.78492,1.70419 0.77853,1.70419 0.78491,1.6964 1.56983,3.37725 0.78492,1.68085 0.78492,1.67308 0.78491,1.66528 0.78492,1.6575 0.7849,1.64971 0.77854,1.64973 1.56982,3.2683 0.78491,1.62638 1.56983,3.22162 0.78492,1.59525 0.78492,1.58745 0.77852,1.57969 0.78492,1.5719 0.78492,1.56412 0.78491,1.55634 0.78492,1.54078 0.7849,1.53299 0.78491,1.52521 0.78492,1.50966 0.77853,1.50185 0.78491,1.49409 0.78492,1.47852 0.78491,1.47074 0.78492,1.46297 0.78492,1.44739 0.78491,1.4396 0.78492,1.42406 0.7849,1.41627 0.77854,1.4007 0.78492,1.39292 0.7849,1.37737 0.78491,1.36958 0.78492,1.354 0.78491,1.34623 0.78492,1.33067 0.78491,1.3229 0.77853,1.30733 0.78492,1.29174 0.78491,1.28398 0.78492,1.26842 0.78492,1.26065 0.7849,1.24507 0.78491,1.22949 0.78492,1.22172 0.77853,1.20617 0.78491,1.19839 0.78492,1.18282 0.78491,1.16724 0.78492,1.15947 0.78491,1.14391 0.78492,1.12835 0.78492,1.12057 0.7849,1.105 0.77854,1.08943 0.78492,1.08166 0.7849,1.0661 0.78491,1.05052 0.78492,1.04275 0.78491,1.02717 0.78492,1.01941 0.78491,1.00384 0.77853,0.98827 0.78492,0.9805 0.78491,0.96492 0.78492,0.94938 0.78492,0.94157 0.78489,0.92603 0.78492,0.91823 0.78492,0.90268 0.77852,0.88711 0.78492,0.87934 0.78492,0.87155 1.56983,1.6964 0.78491,0.82486 0.78492,0.81708 0.78492,0.8093 0.78489,0.79374 0.77855,0.77816 0.78491,0.77818 0.7849,0.75481 0.78492,0.74704 0.78492,0.73927 0.78491,0.7237 0.78492,0.7159 0.78491,0.70037 0.77853,0.69256 1.56983,1.35402 1.56983,1.30732 1.56982,1.26063 0.78492,0.61477 0.77852,0.60695 0.78492,0.59919 0.78492,0.58363 0.78491,0.57586 0.78492,0.56805 0.78491,0.56029 0.78492,0.54472 0.78491,0.53693 0.7849,0.52917 0.77855,0.51358 0.78491,0.51359 0.7849,0.49803 0.78492,0.49024 0.78492,0.48247 0.78491,0.47468 1.56983,0.91824 0.77853,0.44357 0.78492,0.44354 0.78491,0.42801 1.56983,0.84041 0.7849,0.40466 0.78492,0.39687 0.78491,0.38908 0.77853,0.38129 0.78492,0.38131 0.78491,0.36573 0.78492,0.35796 1.56983,0.70035 0.78492,0.3424 1.56981,0.65366 0.77855,0.31905 0.78491,0.31127 1.56982,0.60698 1.56983,0.57584 0.78492,0.28015 0.78491,0.27234 0.77853,0.27236 0.78492,0.26459 0.78491,0.25679 0.78492,0.24901 2.35473,0.7237 0.78491,0.22566 0.77853,0.22569 1.56983,0.43577 0.78492,0.21009 1.56983,0.40466 0.78492,0.19463 1.56981,0.37352 0.77855,0.18666 0.78491,0.17112 0.7849,0.1789 0.78492,0.17112 1.56983,0.32684 0.78492,0.15559 0.78491,0.14781 0.77853,0.15559 0.78491,0.14781 1.56984,0.28015 2.35473,0.39687 0.78491,0.12451 0.77853,0.12451 2.35475,0.35017 1.56983,0.21788 2.35473,0.3035 0.77855,0.1012 0.78491,0.0934 0.7849,0.0857 0.78492,0.0934 2.35474,0.25678 0.78492,0.0779 0.77853,0.0779 0.78491,0.0779 3.92457,0.35018 0.78491,0.0621 0.77853,0.0622 0.78492,0.0622 0.78491,0.0544 0.78492,0.0622 2.35475,0.16335 1.56981,0.0934 0.77855,0.0544 0.78491,0.0466 0.7849,0.0389 1.56983,0.0934 2.35475,0.11674 0.77853,0.0388 0.78491,0.0388 0.78492,0.0311 0.78491,0.0388 3.13965,0.12451 0.77853,0.0311 0.78492,0.0311 0.78491,0.0233 0.78492,0.0311 1.56983,0.0466 0.78491,0.0311 1.56982,0.0466 0.77854,0.0233 0.78492,0.0159 1.56982,0.0466 0.78491,0.0159 0.78492,0.0233 1.56983,0.0311 0.77853,0.0159 0.78491,0.0233 2.35475,0.0466 0.7849,0.008 1.56983,0.0311 0.77853,0.0159 0.78491,0.008 0.78492,0.0159 0.78492,0.008 0.78491,0.0159 0.78492,0.008 0.78491,0.0159 1.56982,0.0159 0.77854,0.0159 5.4944,0.0544 0.77853,0.008 3.13966,0.0311 h 0.7849 l 1.56983,0.0159 0.77853,0.008 h 0.78491 l 0.78492,0.008 h 0.78492 l 1.56983,0.0159 h 0.78491 l 0.78492,0.008 h 0.7849 l 0.77854,0.008"
       id="path18" />
    <path
       style="fill:#0000ff;fill-opacity:0.2;fill-rule:nonzero;stroke:none;stroke-width:1.804"
       d="m -810.64626,416.7912 v -0.0934 l 0.78491,-0.008 h 0.78492 l 0.78491,-0.008 h 0.78492 l 1.56982,-0.0159 h 0.78492 l 0.77853,-0.008 h 0.78491 l 2.35474,-0.0233 h 0.78492 l 1.56982,-0.0159 0.77854,-0.008 6.27931,-0.0621 0.77853,-0.008 0.78491,-0.0159 1.56983,-0.0159 0.78491,-0.0159 0.78492,-0.008 0.78491,-0.0159 0.78492,-0.008 0.77853,-0.0159 0.78491,-0.008 2.35474,-0.0466 0.78492,-0.008 1.56982,-0.0311 0.77854,-0.0159 0.78491,-0.0233 2.35474,-0.0466 0.78492,-0.0233 0.78491,-0.0159 1.56983,-0.0466 0.77853,-0.0159 2.35474,-0.0701 0.78491,-0.0311 1.56984,-0.0466 0.78491,-0.0311 0.77853,-0.0233 4.70948,-0.18666 0.78491,-0.0388 0.77855,-0.0311 3.92456,-0.19463 1.56983,-0.0934 0.78492,-0.0388 0.77853,-0.0466 0.78491,-0.0544 1.56982,-0.0934 2.35474,-0.16335 0.78492,-0.0622 0.77853,-0.0544 2.35475,-0.18666 3.13964,-0.28013 0.77855,-0.0701 2.35473,-0.23346 2.35475,-0.25678 0.78491,-0.0934 0.78492,-0.0857 0.77853,-0.0934 3.13964,-0.40466 1.56983,-0.21788 0.78492,-0.11674 0.77853,-0.11674 0.78491,-0.11673 1.56983,-0.24902 2.35474,-0.39687 0.78491,-0.14004 0.77853,-0.14005 0.78492,-0.14781 0.78491,-0.15559 0.78492,-0.14781 0.78491,-0.15559 1.56983,-0.32684 0.78492,-0.17112 0.7849,-0.1789 0.77854,-0.17112 2.35474,-0.56028 0.78491,-0.19463 1.56983,-0.40466 0.78492,-0.21009 0.77853,-0.21789 0.78491,-0.21788 1.56983,-0.45135 2.35474,-0.7237 0.78491,-0.24901 0.77853,-0.25679 0.78491,-0.26459 1.56984,-0.5447 0.78491,-0.28015 1.56983,-0.57584 1.56982,-0.60698 0.77854,-0.31127 0.78492,-0.31905 1.56981,-0.65366 0.78492,-0.3424 1.56983,-0.70035 0.78492,-0.35796 0.77853,-0.36573 1.56983,-0.7626 0.78491,-0.38908 0.78492,-0.39687 0.7849,-0.40466 1.56983,-0.84041 0.77853,-0.42801 1.56983,-0.88711 1.56983,-0.91824 0.78492,-0.47468 0.78491,-0.48247 0.78492,-0.49024 0.7849,-0.49803 0.77854,-0.51359 0.78492,-0.51358 0.7849,-0.52917 0.78491,-0.53693 0.78492,-0.54472 0.78492,-0.56029 0.78491,-0.56805 0.78492,-0.57586 0.77853,-0.58363 0.78491,-0.59918 0.78492,-0.60696 0.78491,-0.61477 1.56982,-1.26063 1.56983,-1.30732 0.77853,-0.677 0.78491,-0.67702 0.78492,-0.69256 0.78491,-0.70037 0.78492,-0.7159 0.78492,-0.7237 0.78491,-0.73927 0.78492,-0.74704 0.7849,-0.75481 0.77854,-0.77818 0.78492,-0.77816 0.7849,-0.79374 0.78491,-0.8093 0.78492,-0.81708 0.78491,-0.82486 1.56984,-1.6964 0.77852,-0.87155 0.78492,-0.87934 0.78492,-0.88711 0.78491,-0.90268 0.78492,-0.91823 0.7849,-0.92603 0.78491,-0.94157 0.78492,-0.94938 0.77853,-0.96492 0.78491,-0.9805 0.78492,-0.98827 0.78491,-1.00384 0.78492,-1.01941 0.78492,-1.02717 0.78491,-1.04275 0.78492,-1.05052 0.7849,-1.0661 0.77854,-1.08166 0.78492,-1.08943 0.7849,-1.105 0.78491,-1.12057 0.78492,-1.12835 0.78491,-1.14391 0.78492,-1.15947 0.78492,-1.16724 0.77852,-1.18282 0.78492,-1.19839 0.78492,-1.20617 0.78491,-1.22172 0.78492,-1.22949 0.7849,-1.24507 0.78491,-1.26065 0.78492,-1.26842 0.77853,-1.28398 0.78491,-1.29174 0.78492,-1.30733 0.78491,-1.3229 0.78492,-1.33067 0.78491,-1.34623 0.78492,-1.354 0.78492,-1.36958 0.7849,-1.37737 0.77854,-1.39292 0.78492,-1.4007 0.7849,-1.41627 0.78491,-1.42406 0.78492,-1.4396 0.78491,-1.44739 0.78492,-1.46297 0.78491,-1.47074 0.77853,-1.47852 0.78492,-1.49409 0.78491,-1.50185 0.78492,-1.50966 0.78492,-1.52521 0.7849,-1.53299 0.78491,-1.54078 0.78492,-1.55634 0.77853,-1.56412 0.78491,-1.5719 0.78492,-1.57969 0.78491,-1.58745 0.78492,-1.59524 1.56983,-3.22163 0.78492,-1.62638 0.7849,-1.63415 0.77854,-1.63415 1.56981,-3.29944 0.78492,-1.6575 0.78492,-1.66528 0.78491,-1.67308 0.78492,-1.68085 0.78491,-1.68861 0.77853,-1.68863 0.78492,-1.69641 1.56983,-3.40838 1.56981,-3.42395 1.56984,-3.4395 0.77852,-1.72754 1.56984,-3.45506 2.35474,-5.20595 0.78492,-1.7431 0.78491,-1.73533 0.7849,-1.7431 0.77855,-1.73531 1.56981,-3.4862 0.78492,-1.73531 0.78492,-1.7431 2.35474,-5.20597 0.77853,-1.72752 1.56983,-3.45508 0.78492,-1.71975 2.35473,-5.13591 0.78492,-1.69642 0.77852,-1.70419 0.78492,-1.68862 1.56983,-3.36169 0.78492,-1.67307 1.56983,-3.315 0.78491,-1.64971 0.7849,-1.63417 0.77855,-1.63415 0.78491,-1.61859 0.7849,-1.61081 0.78492,-1.59525 0.78491,-1.58746 0.78492,-1.57969 0.78492,-1.56412 0.78491,-1.55633 0.77853,-1.54078 0.78492,-1.53299 0.78491,-1.51743 0.78492,-1.50187 0.78491,-1.4863 0.7849,-1.47852 0.78492,-1.46296 0.78491,-1.44739 0.77853,-1.42405 0.78492,-1.41627 0.78491,-1.40071 0.78492,-1.38514 0.78492,-1.36179 0.78491,-1.34624 0.78492,-1.33067 0.78491,-1.3151 0.7849,-1.29176 0.77855,-1.2762 0.78491,-1.26063 0.7849,-1.23729 0.78492,-1.21395 0.78491,-1.19838 0.78492,-1.17503 0.78492,-1.15947 0.78491,-1.13613 0.77853,-1.11278 0.78492,-1.08944 0.78491,-1.07387 0.78492,-1.05053 0.78491,-1.02719 0.7849,-0.99605 0.78492,-0.9805 0.78491,-0.95714 0.77853,-0.93381 0.78492,-0.91045 0.78491,-0.88712 0.78492,-0.85598 0.78492,-0.84043 0.78491,-0.80929 0.78492,-0.78595 0.78491,-0.75483 0.7849,-0.73926 0.77855,-0.70813 0.78491,-0.67701 0.7849,-0.66144 0.78492,-0.63032 0.78491,-0.59919 0.78492,-0.57584 0.78491,-0.55251 0.78492,-0.52138 0.77853,-0.49024 0.78491,-0.46689 0.78492,-0.44356 0.78492,-0.41243 0.78491,-0.38131 0.7849,-0.35796 0.78492,-0.32683 0.78491,-0.29571 0.77853,-0.27234 0.78492,-0.24125 0.78491,-0.21787 0.78492,-0.18667 0.78491,-0.15558 0.78492,-0.13228 0.78492,-0.10119 0.78491,-0.0701 0.7849,-0.0388 0.77855,-0.0159 0.78491,0.0159 0.7849,0.0388 0.78492,0.0701 0.78491,0.10119 0.78492,0.13228 0.78491,0.15558 0.78492,0.18667 0.77853,0.21787 0.78491,0.24125 0.78492,0.27234 0.78492,0.29571 0.78491,0.32683 0.7849,0.35796 0.78492,0.38131 0.78491,0.41243 0.77853,0.44356 0.78492,0.46689 0.78491,0.49024 0.78492,0.52138 0.78491,0.55251 0.78492,0.57584 0.78492,0.59919 0.78491,0.63032 0.7849,0.66144 0.77854,0.67701 0.78492,0.70813 0.7849,0.73926 0.78492,0.75483 0.78491,0.78595 0.78492,0.80929 0.78491,0.84043 0.78492,0.85598 0.77853,0.88712 0.78491,0.91045 0.78492,0.93381 0.78491,0.95714 0.78492,0.9805 0.7849,0.99605 0.78492,1.02719 0.78491,1.05053 0.77853,1.07387 0.78492,1.08944 0.78491,1.11278 0.78492,1.13613 0.78491,1.15947 0.78492,1.17503 0.78491,1.19838 0.78492,1.21395 0.7849,1.23729 0.77854,1.26063 0.78492,1.2762 0.7849,1.29176 0.78492,1.3151 0.78491,1.33067 0.78492,1.34624 0.78491,1.36179 0.78492,1.38514 0.77853,1.40071 0.78491,1.41627 0.78492,1.42405 0.78491,1.44739 0.78492,1.46296 0.7849,1.47852 0.78491,1.4863 0.78492,1.50187 0.77853,1.51743 0.78491,1.53299 0.78492,1.54078 0.78492,1.55633 0.78491,1.56412 0.78492,1.57969 0.78491,1.58746 0.78492,1.59525 0.7849,1.61081 0.77854,1.61859 1.56982,3.26832 0.78491,1.64971 1.56984,3.315 0.78491,1.67307 0.78492,1.68085 0.77853,1.68084 0.78491,1.68862 0.78492,1.70419 0.78491,1.69642 2.35473,5.13591 0.78492,1.71975 0.77853,1.72754 1.56983,3.45506 2.35475,5.20597 0.78491,1.7431 0.78492,1.73531 0.7849,1.7431 0.77854,1.7431 0.78492,1.73531 0.7849,1.7431 0.78491,1.73533 0.78492,1.7431 2.35475,5.20595 0.77852,1.72752 1.56984,3.45508 1.56983,3.4395 1.56981,3.42395 0.78492,1.70419 0.77853,1.70419 0.78491,1.69641 1.56983,3.37724 0.78492,1.68085 0.78492,1.67308 0.78491,1.66528 0.78492,1.6575 0.7849,1.64971 0.77854,1.64973 1.56982,3.2683 0.78491,1.62638 1.56983,3.22163 0.78492,1.59524 0.78492,1.58745 0.77852,1.57969 0.78492,1.5719 0.78492,1.56412 0.78491,1.55634 0.78492,1.54078 0.7849,1.53299 0.78491,1.52521 0.78492,1.50966 0.77853,1.50185 0.78491,1.49409 0.78492,1.47852 0.78491,1.47074 0.78492,1.46297 0.78492,1.44739 0.78491,1.4396 0.78492,1.42406 0.7849,1.41627 0.77854,1.4007 0.78492,1.39292 0.7849,1.37737 0.78491,1.36958 0.78492,1.354 0.78491,1.34623 0.78492,1.33067 0.78491,1.3229 0.77853,1.30733 0.78492,1.29174 0.78491,1.28398 0.78492,1.26842 0.78492,1.26065 0.7849,1.24507 0.78491,1.22949 0.78492,1.22172 0.77853,1.20617 0.78491,1.19839 0.78492,1.18282 0.78491,1.16724 0.78492,1.15947 0.78491,1.14391 0.78492,1.12835 0.78492,1.12057 0.7849,1.105 0.77854,1.08943 0.78492,1.08166 0.7849,1.0661 0.78491,1.05052 0.78492,1.04275 0.78491,1.02717 0.78492,1.01941 0.78491,1.00384 0.77853,0.98827 0.78492,0.9805 0.78491,0.96492 0.78492,0.94938 0.78492,0.94157 0.78489,0.92603 0.78492,0.91823 0.78492,0.90268 0.77852,0.88711 0.78492,0.87934 0.78492,0.87155 1.56983,1.6964 0.78491,0.82486 0.78492,0.81708 0.78492,0.8093 0.78489,0.79374 0.77855,0.77816 0.78491,0.77818 0.7849,0.75481 0.78492,0.74704 0.78492,0.73927 0.78491,0.7237 0.78492,0.7159 0.78491,0.70037 0.77853,0.69256 1.56983,1.35402 1.56983,1.30732 1.56982,1.26063 0.78492,0.61477 0.77852,0.60696 0.78492,0.59918 0.78492,0.58363 0.78491,0.57586 0.78492,0.56805 0.78491,0.56029 0.78492,0.54472 0.78491,0.53693 0.7849,0.52917 0.77855,0.51358 0.78491,0.51359 0.7849,0.49803 0.78492,0.49024 0.78492,0.48247 0.78491,0.47468 1.56983,0.91824 0.77853,0.44357 0.78492,0.44354 0.78491,0.42801 1.56983,0.84041 0.7849,0.40466 0.78492,0.39687 0.78491,0.38908 0.77853,0.38129 0.78492,0.38131 0.78491,0.36573 0.78492,0.35796 1.56983,0.70035 0.78492,0.3424 1.56981,0.65366 0.77855,0.31905 0.78491,0.31127 1.56982,0.60698 1.56983,0.57584 0.78492,0.28015 0.78491,0.27234 0.77853,0.27236 0.78492,0.26459 0.78491,0.25679 0.78492,0.24901 2.35473,0.7237 0.78491,0.22566 0.77853,0.22569 1.56983,0.43577 0.78492,0.21009 1.56983,0.40466 0.78492,0.19463 1.56981,0.37352 0.77855,0.18666 0.78491,0.17112 0.7849,0.1789 0.78492,0.17112 1.56983,0.32684 0.78492,0.15559 0.78491,0.14781 0.77853,0.15559 0.78491,0.14781 1.56984,0.28015 2.35473,0.39687 0.78491,0.12451 0.77853,0.12451 2.35475,0.35017 1.56983,0.21788 2.35473,0.3035 0.77855,0.1012 0.78491,0.0934 0.7849,0.0857 0.78492,0.0934 2.35474,0.25678 0.78492,0.0779 0.77853,0.0779 0.78491,0.0779 3.92457,0.35018 0.78491,0.0622 0.77853,0.0622 0.78492,0.0621 0.78491,0.0544 0.78492,0.0622 2.35475,0.16335 1.56981,0.0934 0.77855,0.0544 0.78491,0.0466 0.7849,0.0389 1.56983,0.0934 2.35475,0.11674 0.77853,0.0388 0.78491,0.0389 0.78492,0.0311 0.78491,0.0388 3.13965,0.12451 0.77853,0.0311 0.78492,0.0311 0.78491,0.0233 0.78492,0.0311 1.56983,0.0466 0.78491,0.0311 1.56982,0.0466 0.77854,0.0233 0.78492,0.0159 1.56982,0.0466 0.78491,0.0159 0.78492,0.0233 1.56983,0.0311 0.77853,0.0159 0.78491,0.0233 2.35475,0.0466 0.7849,0.008 1.56983,0.0311 0.77853,0.0159 0.78491,0.008 0.78492,0.0159 0.78492,0.008 0.78491,0.0159 0.78492,0.008 0.78491,0.0159 1.56982,0.0159 0.77854,0.0159 5.4944,0.0544 0.77853,0.008 3.13966,0.0311 h 0.7849 l 1.56983,0.0159 0.77853,0.008 h 0.78491 l 0.78492,0.008 h 0.78492 l 1.56983,0.0159 h 0.78491 l 0.78492,0.008 h 0.7849 l 0.77854,0.008 v 0.0934 z m 0,0"
       id="path20" />
    <g
       clip-path="url(#clip2)"
       clip-rule="nonzero"
       id="g28"
       transform="matrix(1.6336416,0,0,1.9921131,-932.18664,0.74302937)">
      <path
         style="fill:none;stroke:#000000;stroke-width:0.75;stroke-linecap:round;stroke-linejoin:round;stroke-miterlimit:10;stroke-opacity:1"
         d="M 362.39844,214.55859 V 59.039062"
         id="path26" />
    </g>
    <path
       style="fill:#0000ff;fill-opacity:0.698039;fill-rule:nonzero;stroke:none;stroke-width:1.804"
       d="m -340.15747,416.7912 v -38.83844 l 0.78491,0.77818 0.7849,0.75481 0.78492,0.74704 0.78492,0.73928 0.78491,0.72369 0.78492,0.71591 0.78491,0.70036 0.77853,0.69256 1.56983,1.35402 1.56983,1.30733 1.56982,1.26063 0.78492,0.61476 0.77852,0.60696 0.78492,0.59919 0.78492,0.58363 0.78491,0.57586 0.78492,0.56805 0.78491,0.56028 0.78492,0.54472 0.78491,0.53694 0.7849,0.52916 0.77855,0.51359 0.78491,0.51358 0.7849,0.49803 0.78492,0.49024 0.78492,0.48247 0.78491,0.47468 1.56983,0.91825 0.77853,0.44356 0.78492,0.44355 0.78491,0.428 1.56983,0.84041 0.7849,0.40466 0.78492,0.39687 0.78491,0.38908 0.77853,0.38129 0.78492,0.38131 0.78491,0.36573 0.78492,0.35797 1.56983,0.70034 0.78492,0.34241 1.56981,0.65365 0.77855,0.31906 0.78491,0.31126 1.56982,0.60698 1.56983,0.57584 0.78492,0.28015 0.78491,0.27234 0.77853,0.27237 0.78492,0.26459 0.78491,0.25678 0.78492,0.24902 2.35473,0.72369 0.78491,0.22567 0.77853,0.22568 1.56983,0.43578 0.78492,0.21009 1.56983,0.40465 0.78492,0.19463 1.56981,0.37352 0.77855,0.18667 0.78491,0.17112 0.7849,0.17889 0.78492,0.17112 1.56983,0.32685 0.78492,0.15558 0.78491,0.14782 0.77853,0.15558 0.78491,0.14782 1.56984,0.28015 2.35473,0.39687 0.78491,0.1245 0.77853,0.12451 2.35475,0.35017 1.56983,0.21788 2.35473,0.3035 0.77855,0.1012 0.78491,0.0934 0.7849,0.0857 0.78492,0.0934 2.35474,0.25678 0.78492,0.0779 0.77853,0.0779 0.78491,0.0779 3.92457,0.35017 0.78491,0.0622 0.77853,0.0621 0.78492,0.0622 0.78491,0.0544 0.78492,0.0621 2.35475,0.16336 1.56981,0.0934 0.77855,0.0544 0.78491,0.0466 0.7849,0.0388 1.56983,0.0934 2.35475,0.11674 0.77853,0.0388 0.78491,0.0388 0.78492,0.0311 0.78491,0.0388 3.13965,0.1245 0.77853,0.0311 0.78492,0.0311 0.78491,0.0233 0.78492,0.0311 1.56983,0.0466 0.78491,0.0311 1.56982,0.0466 0.77854,0.0233 0.78492,0.0159 1.56982,0.0466 0.78491,0.0159 0.78492,0.0233 1.56983,0.0311 0.77853,0.0159 0.78491,0.0233 2.35475,0.0466 0.7849,0.008 1.56983,0.0311 0.77853,0.0159 0.78491,0.008 0.78492,0.0159 0.78492,0.008 0.78491,0.0159 0.78492,0.008 0.78491,0.0159 1.56982,0.0159 0.77854,0.0159 5.4944,0.0544 0.77853,0.008 3.13966,0.0311 h 0.7849 l 1.56983,0.0159 0.77853,0.008 h 0.78491 l 0.78492,0.008 h 0.78492 l 1.56983,0.0159 h 0.78491 l 0.78492,0.008 h 0.7849 l 0.77854,0.008 v 0.0934 z m 0,0"
       id="path30" />
    <g
       clip-path="url(#clip4)"
       clip-rule="nonzero"
       id="g38"
       transform="matrix(1.6336416,0,0,1.9921131,-932.18664,0.74302937)">
      <path
         style="fill:none;stroke:#000000;stroke-width:0.75;stroke-linecap:round;stroke-linejoin:round;stroke-miterlimit:10;stroke-opacity:1"
         d="M 362.39844,214.55859 V 59.039062"
         id="path36" />
    </g>
  </g>
</svg>
